<svg width="60" height="60" viewBox="0 0 60 60" fill="none" xmlns="http://www.w3.org/2000/svg">
<path d="M36.2892 50.0002C36.2892 55.5231 31.8118 60 26.2889 60C20.766 60 16.2891 55.5231 16.2891 50.0002C16.2891 44.4773 20.766 39.9999 26.2889 39.9999C31.8118 39.9999 36.2892 44.4773 36.2892 50.0002Z" fill="#FFA000"/>
<path d="M43.8089 29.8027C35.3339 28.5923 28.7892 21.3047 28.7892 12.5001C28.7892 9.99982 29.3239 7.62769 30.2715 5.47482C28.9915 5.17499 27.6617 5.00012 26.2889 5.00012C16.6393 5.00012 8.78906 12.8499 8.78906 22.5V29.4699C8.78906 34.4174 6.62155 39.0875 2.81891 42.3024C1.84662 43.1323 1.28906 44.3449 1.28906 45.6248C1.28906 48.0377 3.2515 50.0001 5.66391 50.0001H46.9139C49.3268 50.0001 51.2892 48.0377 51.2892 45.6248C51.2892 44.3449 50.7317 43.1323 49.7342 42.2799C46.0442 39.1575 43.9041 34.6248 43.8089 29.8027Z" fill="#FFC107"/>
<path d="M58.7892 12.5002C58.7892 19.4037 53.1926 24.9998 46.2891 24.9998C39.3855 24.9998 33.7889 19.4037 33.7889 12.5002C33.7889 5.59662 39.3855 0 46.2891 0C53.1926 0 58.7892 5.59662 58.7892 12.5002Z" fill="#F44336"/>
</svg>
