<svg width="36" height="36" viewBox="0 0 36 36" fill="none" xmlns="http://www.w3.org/2000/svg">
<path d="M21.7735 30.0001C21.7735 33.3138 19.0871 36 15.7733 36C12.4596 36 9.77344 33.3138 9.77344 30.0001C9.77344 26.6863 12.4596 23.9999 15.7733 23.9999C19.0871 23.9999 21.7735 26.6863 21.7735 30.0001Z" fill="#FFA000"/>
<path d="M26.2853 17.8817C21.2003 17.1555 17.2735 12.7829 17.2735 7.50012C17.2735 5.99994 17.5943 4.57666 18.1629 3.28494C17.3949 3.10504 16.597 3.00012 15.7733 3.00012C9.98355 3.00012 5.27344 7.70996 5.27344 13.5V17.682C5.27344 20.6505 3.97293 23.4525 1.69135 25.3815C1.10797 25.8794 0.773438 26.607 0.773438 27.3749C0.773438 28.8227 1.9509 30.0001 3.39835 30.0001H28.1483C29.5961 30.0001 30.7735 28.8227 30.7735 27.3749C30.7735 26.607 30.439 25.8794 29.8405 25.368C27.6265 23.4946 26.3425 20.7749 26.2853 17.8817Z" fill="#FFC107"/>
<path d="M35.2735 7.50009C35.2735 11.6422 31.9156 14.9999 27.7734 14.9999C23.6313 14.9999 20.2733 11.6422 20.2733 7.50009C20.2733 3.35797 23.6313 0 27.7734 0C31.9156 0 35.2735 3.35797 35.2735 7.50009Z" fill="#F44336"/>
</svg>
