<svg width="48" height="48" viewBox="0 0 48 48" fill="none" xmlns="http://www.w3.org/2000/svg">
<g clip-path="url(#clip0)">
<path d="M29.0314 40.0001C29.0314 44.4185 25.4495 48 21.0311 48C16.6128 48 13.0312 44.4185 13.0312 40.0001C13.0312 35.5818 16.6128 31.9999 21.0311 31.9999C25.4495 31.9999 29.0314 35.5818 29.0314 40.0001Z" fill="#FFA000"/>
<path d="M35.0471 23.8422C28.2671 22.8739 23.0314 17.0438 23.0314 10.0001C23.0314 7.99988 23.4591 6.10217 24.2172 4.37988C23.1932 4.14001 22.1294 4.00012 21.0311 4.00012C13.3114 4.00012 7.03125 10.2799 7.03125 18V23.5759C7.03125 27.5339 5.29724 31.27 2.25513 33.8419C1.47729 34.5059 1.03125 35.476 1.03125 36.4999C1.03125 38.4302 2.6012 40.0001 4.53113 40.0001H37.5311C39.4614 40.0001 41.0314 38.4302 41.0314 36.4999C41.0314 35.476 40.5853 34.5059 39.7874 33.824C36.8353 31.326 35.1233 27.6998 35.0471 23.8422Z" fill="#FFC107"/>
<path d="M47.0314 10.0001C47.0314 15.5229 42.5541 19.9999 37.0312 19.9999C31.5084 19.9999 27.0311 15.5229 27.0311 10.0001C27.0311 4.47729 31.5084 0 37.0312 0C42.5541 0 47.0314 4.47729 47.0314 10.0001Z" fill="#F44336"/>
</g>
<defs>
<clipPath id="clip0">
<rect width="48" height="48" fill="white"/>
</clipPath>
</defs>
</svg>
