<svg width="42" height="42" viewBox="0 0 42 42" fill="none" xmlns="http://www.w3.org/2000/svg">
<path d="M17.7016 23.0638C17.7016 24.2548 16.7362 25.2204 15.5451 25.2204C14.3542 25.2204 13.3887 24.2549 13.3887 23.0638C13.3887 21.8729 14.3542 20.9073 15.5451 20.9073C16.7362 20.9074 17.7016 21.8729 17.7016 23.0638ZM26.4549 20.9074C25.2639 20.9074 24.2984 21.8729 24.2984 23.064C24.2984 24.2549 25.2639 25.2204 26.4549 25.2204C27.6458 25.2204 28.6114 24.2549 28.6114 23.064C28.6113 21.8729 27.6459 20.9074 26.4549 20.9074ZM42 21.8618V25.9602C42 28.0178 40.332 29.6858 38.2744 29.6858H35.5708C32.892 37.1239 26.0513 41.6166 21 41.6166C15.9487 41.6166 9.10803 37.1239 6.42916 29.6857H3.72565C1.66799 29.6857 0 28.0178 0 25.9601V21.8617C0 20.4459 0.789971 19.2146 1.95314 18.5842C1.99219 12.7657 3.68804 8.22135 7.00089 5.07979C10.2869 1.96369 14.9969 0.383545 21 0.383545C27.0031 0.383545 31.7131 1.96369 34.9991 5.07972C38.3119 8.22128 40.0077 12.7657 40.0469 18.5842C41.21 19.2146 42 20.4459 42 21.8618ZM34.1146 23.0775C34.1146 22.1188 34.0656 21.2181 33.9931 20.3453C32.3397 18.8325 29.338 17.6847 25.5497 17.2581C26.0471 17.8175 26.4767 18.5532 26.7373 19.5217C24.4169 17.6937 19.8622 18.1288 16.417 14.038C16.2195 13.8095 16.0487 13.5912 15.901 13.3917C15.8993 13.3893 15.8973 13.3875 15.8956 13.3852L15.896 13.3853C15.2831 12.5564 15.0742 12.0634 15.0625 12.6091C14.9614 17.311 11.6288 20.9765 7.92812 21.4936C7.90472 22.0107 7.88557 22.5328 7.88557 23.0775C7.88557 25.0649 8.21011 26.8762 8.76187 28.5085C10.8406 31.016 14.2735 31.724 17.3119 31.9118C17.8759 31.0144 19.1415 30.3879 20.6153 30.3879C22.6136 30.3879 24.2334 31.5377 24.2334 32.9562C24.2334 34.3746 22.6135 35.5244 20.6153 35.5244C19.0783 35.5244 17.7685 34.8429 17.2442 33.8834C15.1207 33.7599 12.7863 33.3979 10.7057 32.4153C13.6315 36.7281 18.1674 39.0086 21 39.0086C25.4511 39.0086 34.1146 33.3856 34.1146 23.0775ZM37.8038 18.1362C37.5667 7.98266 31.7711 2.61902 21 2.61902C10.2289 2.61902 4.4334 7.98266 4.19623 18.1362H5.62965C6.15376 14.7139 7.26147 11.8994 8.94332 9.73534C11.6234 6.28695 15.6799 4.53839 21 4.53839C26.3201 4.53839 30.3766 6.28695 33.0568 9.73534C34.7385 11.8994 35.8463 14.7139 36.3704 18.1362H37.8038Z" fill="#119656"/>
</svg>
