<svg width="29" height="29" viewBox="0 0 29 29" fill="none" xmlns="http://www.w3.org/2000/svg">
<g clip-path="url(#clip0)">
<path d="M27.7337 1.88762C26.425 1.18298 24.9654 2.54194 24.1098 3.34725C22.1469 5.25986 20.486 7.47445 18.6236 9.48773C16.56 11.7023 14.6474 13.9169 12.5334 16.0813C11.3255 17.2892 10.0169 18.5979 9.21155 20.1078C7.3996 18.3461 5.83932 16.4335 3.82604 14.8733C2.36642 13.766 -0.0495043 12.9607 0.000827466 15.6283C0.101491 19.1013 3.17173 22.8258 5.43666 25.1913C6.39297 26.198 7.65126 27.2549 9.11088 27.3053C10.8725 27.4059 12.6844 25.292 13.7414 24.1344C15.6038 22.1211 17.1137 19.8561 18.8249 17.7926C21.0395 15.0746 23.3045 12.407 25.4687 9.63872C26.8277 7.92744 31.1059 3.69949 27.7337 1.88762ZM2.21534 15.427C2.16501 15.427 2.11468 15.427 2.01402 15.4772C1.81269 15.427 1.66169 15.3765 1.46037 15.2759C1.61136 15.1752 1.86302 15.2256 2.21534 15.427Z" fill="#119656"/>
</g>
<defs>
<clipPath id="clip0">
<rect width="29" height="29" fill="white"/>
</clipPath>
</defs>
</svg>
