<svg width="44" height="44" viewBox="0 0 44 44" fill="none" xmlns="http://www.w3.org/2000/svg">
<path d="M40.8754 20.2166H36.4911H35.9046C34.6085 20.2166 33.5573 21.2677 33.5573 22.5682V22.8231C33.5573 24.1249 34.6085 25.1767 35.9064 25.1767H40.2951H40.8754C42.1739 25.1767 43.2283 24.1205 43.2283 22.8231L43.2257 22.5651C43.2283 21.2677 42.1739 20.2166 40.8754 20.2166Z" fill="#119656"/>
<path d="M40.8779 14.3498H39.8424V2.97268C39.8424 1.33752 38.5049 0 36.8691 0H17.2527C15.6176 0 14.2801 1.33815 14.2801 2.97268V11.1353C10.3234 13.3721 6.24239 15.7086 6.23359 15.7143C4.01821 16.6261 0.772369 19.568 0.772369 26.5149C0.772369 27.1353 0.813186 27.708 0.870329 28.2612C0.888539 28.4232 0.908633 28.579 0.930611 28.7353C0.987754 29.1416 1.05934 29.5303 1.14474 29.8995C1.17551 30.0314 1.19937 30.1689 1.23265 30.2951C1.34757 30.7221 1.48069 31.1228 1.63014 31.5039C1.70549 31.6929 1.78713 31.865 1.86939 32.0421C1.9573 32.2286 2.04584 32.4119 2.14066 32.5834C2.25055 32.79 2.36044 32.989 2.481 33.178C2.50989 33.222 2.54129 33.2622 2.5708 33.3068C5.43171 37.6314 10.7096 37.6509 10.7096 37.6509H14.2801V41.0286C14.2801 42.6619 15.6176 43.9994 17.2527 43.9994H36.8684C38.5042 43.9994 39.8418 42.6612 39.8418 41.0286V36.9086H40.2951V36.9061H40.8735C42.1739 36.9061 43.2283 35.8543 43.2257 34.5538L43.2283 34.2976C43.2257 32.9991 42.1739 31.9504 40.8754 31.9504H40.2951H36.4904H35.9039C34.6053 31.9504 33.5567 33.0016 33.5567 34.2995V34.5601C33.5567 35.8549 34.6078 36.9105 35.9058 36.9105H37.7733V38.5017H16.3479V17.1573C17.4242 16.4747 18.4207 15.8179 18.989 15.3777C21.8681 13.151 24.6009 11.3777 24.9708 9.76954C25.4524 7.68289 23.8505 5.92465 21.0719 7.36829C20.1965 7.82292 18.4 8.81947 16.3479 9.97174V4.71083L37.7733 4.71397V14.3485H36.4904V14.351H35.9071C34.6078 14.351 33.5535 15.4022 33.5535 16.7039V16.9589C33.5535 18.26 34.6078 19.3086 35.9039 19.3086H36.4873H40.292H40.8766C42.1739 19.3086 43.2257 18.2575 43.2257 16.9589V16.697C43.2283 15.4041 42.1771 14.3498 40.8779 14.3498ZM27.0581 39.5454C27.8819 39.5454 28.5463 40.2104 28.5463 41.0323C28.5463 41.8562 27.8813 42.5187 27.0581 42.5187C26.2374 42.5187 25.5743 41.8543 25.5743 41.0323C25.5755 40.2129 26.2405 39.5454 27.0581 39.5454ZM30.1997 2.86217H23.9228C23.7256 2.86217 23.5623 2.70204 23.5623 2.50424C23.5623 2.3033 23.7256 2.14317 23.9228 2.14317H30.1997C30.3969 2.14317 30.5576 2.30267 30.5576 2.50424C30.5576 2.70141 30.3969 2.86217 30.1997 2.86217Z" fill="#119656"/>
<path d="M40.8754 26.0835H40.2951H35.9046C34.6085 26.0835 33.5542 27.1378 33.5542 28.4358V28.6932C33.5542 29.9924 34.606 31.0436 35.9046 31.0436H36.4879H40.2926H40.8741C42.1746 31.0436 43.2232 29.9924 43.2264 28.6932V28.4358C43.2257 27.1378 42.1771 26.0835 40.8754 26.0835Z" fill="#119656"/>
</svg>
