<svg width="180" height="149" viewBox="0 0 180 149" fill="none" xmlns="http://www.w3.org/2000/svg">
<path opacity="0.3" d="M161.906 1.37014L151.625 15.2011C151.207 15.7635 151.165 16.5211 151.517 17.1269C151.869 17.7327 152.549 18.0702 153.245 17.9845L159.946 17.1615L165.629 20.8093C166.202 21.177 166.934 21.1788 167.507 20.8184C167.524 20.8078 167.541 20.7969 167.558 20.7856C168.138 20.3925 168.428 19.6917 168.295 19.0036L165.032 2.0833C164.9 1.40166 164.379 0.861846 163.702 0.707414C163.025 0.553106 162.32 0.813399 161.906 1.37014ZM164.081 15.6531L161.307 13.8722C160.963 13.6514 160.553 13.5578 160.147 13.6077L156.876 14.0094L162.345 6.65195L164.081 15.6531Z" fill="#119656"/>
<path opacity="0.3" d="M1 111.209C24.6561 125.672 82.4249 135.154 124.251 57.3737C125.667 51.1692 125.227 40.6975 112.145 48.4467C95.7918 58.1331 114.427 92.4841 131.832 79.774C145.757 69.606 155.837 34.9649 159.136 18.9154" stroke="#119656" stroke-miterlimit="1" stroke-linecap="round" stroke-dasharray="5 5"/>
</svg>
