<svg width="197" height="88" viewBox="0 0 197 88" fill="none" xmlns="http://www.w3.org/2000/svg">
<path opacity="0.2" d="M6.02284 87.3535L20.6159 78.1862C21.2093 77.8136 21.5233 77.1228 21.4144 76.4305C21.3055 75.7382 20.7943 75.1774 20.1149 75.0054L13.57 73.3446L9.59469 67.886C9.19397 67.3358 8.51251 67.0689 7.84746 67.1971C7.82774 67.2009 7.80806 67.205 7.78847 67.2094C7.10528 67.3656 6.58111 67.9138 6.45545 68.6032L3.36777 85.5565C3.24348 86.2395 3.53434 86.9317 4.10928 87.3208C4.68445 87.7099 5.43562 87.7226 6.02284 87.3535ZM9.16957 73.2527L11.1105 75.9178C11.3511 76.2481 11.6996 76.484 12.0957 76.5844L15.2898 77.3949L7.52697 82.2714L9.16957 73.2527Z" fill="#119656"/>
<path opacity="0.2" d="M195.79 43.2644C178.98 21.2137 128.57 -8.55118 61.4081 48.7946C57.841 54.0648 54.457 63.9845 69.458 61.5008C88.2093 58.3962 83.2838 19.6278 62.4562 25.1693C45.7941 29.6026 23.8501 58.2393 14.9609 72.0036" stroke="#119656" stroke-miterlimit="1" stroke-linecap="round" stroke-dasharray="5 5"/>
</svg>
