<svg width="219" height="214" viewBox="0 0 219 214" fill="none" xmlns="http://www.w3.org/2000/svg">
<path d="M189.954 211.948L177.833 192.321C177.34 191.523 177.371 190.508 177.91 189.74C178.45 188.973 179.395 188.601 180.313 188.795L189.156 190.663L197.154 186.452C197.96 186.028 198.936 186.109 199.659 186.656C199.681 186.672 199.702 186.689 199.723 186.706C200.452 187.296 200.758 188.264 200.502 189.167L194.204 211.356C193.95 212.25 193.192 212.91 192.272 213.038C191.351 213.166 190.441 212.738 189.954 211.948ZM194.497 193.15L190.592 195.206C190.108 195.461 189.55 195.539 189.015 195.426L184.699 194.514L191.146 204.955L194.497 193.15Z" fill="#119656"/>
<path d="M-12 46.9668C21.2106 30.3985 99.3407 24.3959 146.176 132.932C147.351 141.369 145.561 155.284 129.005 143.445C108.311 128.647 137.112 84.9799 158.862 103.931C176.263 119.092 185.722 166.448 188.276 188.231" stroke="#119656" stroke-miterlimit="1" stroke-linecap="round" stroke-dasharray="5 5"/>
</svg>
