<svg width="235" height="214" viewBox="0 0 235 214" fill="none" xmlns="http://www.w3.org/2000/svg">
<path d="M26.3079 1.99479L40.5322 21.8847C41.1107 22.6933 41.1511 23.7693 40.6355 24.6195C40.1199 25.4698 39.1469 25.9308 38.1624 25.791L28.676 24.4486L20.5189 29.4753C19.6967 29.982 18.6584 29.9654 17.8543 29.4392C17.8304 29.4236 17.8068 29.4077 17.7835 29.3913C16.9706 28.8185 16.5775 27.8168 16.7836 26.844L21.8549 2.92494C22.0594 1.96136 22.8138 1.20917 23.7781 1.00774C24.7426 0.806505 25.7356 1.19417 26.3079 1.99479ZM22.8494 22.2008L26.832 19.7466C27.3257 19.4424 27.9102 19.3203 28.4842 19.4017L33.1139 20.0569L25.5472 9.47645L22.8494 22.2008Z" fill="#119656"/>
<path d="M251.713 162.018C217.776 181.92 135.574 193.864 78.2666 82.4278C76.4202 73.5888 77.3167 58.7444 95.6741 70.0793C118.621 84.2479 91.2874 132.494 66.9265 114.008C47.4377 99.22 34.0421 49.8129 29.7804 26.9579" stroke="#119656" stroke-miterlimit="1" stroke-linecap="round" stroke-dasharray="5 5"/>
</svg>
