<svg width="235" height="215" viewBox="0 0 235 215" fill="none" xmlns="http://www.w3.org/2000/svg">
<path d="M26.3079 2.24529L40.5322 22.1352C41.1107 22.9438 41.1511 24.0198 40.6355 24.87C40.1199 25.7203 39.1469 26.1813 38.1624 26.0415L28.676 24.6991L20.5189 29.7258C19.6967 30.2325 18.6584 30.2159 17.8543 29.6897C17.8304 29.6741 17.8068 29.6582 17.7835 29.6418C16.9706 29.069 16.5775 28.0673 16.7836 27.0945L21.8549 3.17545C22.0594 2.21186 22.8138 1.45967 23.7781 1.25825C24.7426 1.05701 25.7356 1.44467 26.3079 2.24529ZM22.8494 22.4513L26.832 19.9971C27.3257 19.6929 27.9102 19.5708 28.4842 19.6522L33.1139 20.3074L25.5472 9.72695L22.8494 22.4513Z" fill="#119656"/>
<path d="M251.713 162.269C217.776 182.17 135.574 194.114 78.2666 82.6784C76.4202 73.8393 77.3167 58.9949 95.6741 70.3299C118.621 84.4985 91.2874 132.745 66.9265 114.259C47.4377 99.4705 34.0421 50.0634 29.7804 27.2085" stroke="#119656" stroke-miterlimit="1" stroke-linecap="round" stroke-dasharray="5 5"/>
</svg>
