<svg width="127" height="148" viewBox="0 0 127 148" fill="none" xmlns="http://www.w3.org/2000/svg">
<path d="M1.0695 137.228L13.25 125.036C13.7452 124.54 14.4885 124.388 15.1393 124.648C15.79 124.908 16.2232 125.531 16.24 126.232L16.4051 132.982L20.844 138.071C21.2914 138.584 21.4002 139.307 21.1275 139.927C21.1194 139.946 21.1111 139.964 21.1023 139.982C20.7983 140.613 20.1474 141.003 19.4472 140.972L2.23169 140.216C1.53814 140.185 0.927874 139.748 0.676207 139.101C0.424634 138.454 0.579167 137.718 1.0695 137.228ZM15.517 137.293L13.3498 134.808C13.0811 134.5 12.9286 134.108 12.9187 133.699L12.8382 130.405L6.35878 136.89L15.517 137.293Z" fill="#119656"/>
<path d="M86.2201 -38C103.985 -16.7109 121.805 39.0526 50.9705 91.7939C45.0394 94.1009 34.6159 95.1963 40.3705 81.122C47.5637 63.5292 84.2687 76.9454 74.2381 96.0212C66.2136 111.282 33.417 126.315 18.0217 131.923" stroke="#119656" stroke-miterlimit="1" stroke-linecap="round" stroke-dasharray="5 5"/>
</svg>
