<svg width="245" height="187" viewBox="0 0 245 187" fill="none" xmlns="http://www.w3.org/2000/svg">
<path d="M228.342 2.27331L211.273 20.0725C210.579 20.7961 210.384 21.8642 210.776 22.7874C211.168 23.7105 212.072 24.3113 213.075 24.3139L222.737 24.344L230.154 30.5396C230.901 31.164 231.94 31.2975 232.818 30.8884C232.844 30.8762 232.87 30.8638 232.896 30.8507C233.79 30.3964 234.327 29.4533 234.262 28.4525L232.652 3.84487C232.587 2.85352 231.943 1.99375 231.01 1.65344C230.076 1.31327 229.029 1.55681 228.342 2.27331ZM228.877 22.9417L225.257 19.9169C224.808 19.542 224.242 19.3357 223.657 19.3341L218.942 19.3194L228.021 9.85114L228.877 22.9417Z" fill="#119656"/>
<path d="M-20.5384 130.117C10.6304 155.062 91.3542 179.07 164.899 75.5434C168.025 66.9372 169.266 51.8996 149.22 60.599C124.162 71.4732 144.62 123.916 171.719 108.914C193.398 96.9116 213.957 49.2554 221.527 26.9275" stroke="#119656" stroke-miterlimit="1" stroke-linecap="round" stroke-dasharray="5 5"/>
</svg>
