<svg width="189" height="52" viewBox="0 0 189 52" fill="none" xmlns="http://www.w3.org/2000/svg">
<path d="M186.182 0.118833L170.117 6.35886C169.464 6.61249 169.025 7.23138 169.001 7.93177C168.977 8.63217 169.373 9.27955 170.007 9.57708L176.12 12.4464L178.99 18.5587C179.28 19.1748 179.898 19.5657 180.576 19.5657C180.596 19.5657 180.616 19.5655 180.636 19.5648C181.336 19.5407 181.955 19.1017 182.208 18.4484L188.449 2.38583C188.7 1.73869 188.545 1.00396 188.054 0.513053C187.563 0.0221461 186.828 -0.132459 186.182 0.118833ZM180.423 13.3694L179.022 10.3851C178.848 10.0152 178.55 9.71767 178.181 9.54415L175.197 8.14383L183.743 4.82449L180.423 13.3694Z" fill="#119656"/>
<path d="M-8.5 7.5C3.83333 32.3333 47.7 71.1 124.5 27.5C129 23 134.2 13.9 119 13.5C100 13 97.5 52 119 50.5C136.2 49.3 163.167 25.3333 174.5 13.5" stroke="#119656" stroke-miterlimit="1" stroke-linecap="round" stroke-dasharray="5 5"/>
</svg>
