<svg width="161" height="161" viewBox="0 0 161 161" fill="none" xmlns="http://www.w3.org/2000/svg">
<path d="M138.876 158.596L129.821 143.933C129.453 143.337 129.476 142.578 129.879 142.005C130.282 141.432 130.988 141.154 131.674 141.299L138.28 142.694L144.255 139.548C144.858 139.231 145.587 139.292 146.127 139.701C146.143 139.713 146.159 139.725 146.175 139.738C146.719 140.179 146.948 140.902 146.757 141.576L142.052 158.154C141.862 158.822 141.296 159.315 140.608 159.41C139.92 159.506 139.241 159.186 138.876 158.596ZM142.27 144.553L139.353 146.089C138.991 146.279 138.575 146.337 138.175 146.252L134.951 145.571L139.767 153.371L142.27 144.553Z" fill="#119656"/>
<path d="M-12 35.3411C12.8111 22.9632 71.1809 18.4787 106.171 99.5645C107.048 105.868 105.711 116.263 93.3427 107.419C77.8821 96.3632 99.3991 63.74 115.648 77.8983C128.648 89.2249 135.715 124.604 137.623 140.877" stroke="#119656" stroke-miterlimit="1" stroke-linecap="round" stroke-dasharray="5 5"/>
</svg>
