<svg width="166" height="134" viewBox="0 0 166 134" fill="none" xmlns="http://www.w3.org/2000/svg">
<path d="M2.66132 95.2852L19.6495 92.3873C20.3402 92.2694 21.0348 92.5748 21.4153 93.1634C21.7957 93.752 21.7886 94.5108 21.397 95.092L17.6266 100.694L18.3035 107.412C18.3717 108.09 18.0417 108.743 17.4606 109.091C17.4433 109.101 17.426 109.111 17.4084 109.121C16.7951 109.46 16.039 109.401 15.4856 108.971L1.88074 98.3948C1.33271 97.9687 1.08796 97.2588 1.25699 96.5855C1.42622 95.912 1.97759 95.4017 2.66132 95.2852ZM14.4083 103.696L14.0779 100.416C14.0369 100.009 14.1394 99.601 14.3676 99.2621L16.2078 96.5283L7.17085 98.0699L14.4083 103.696Z" fill="#119656"/>
<path d="M173.487 1.61511C175.661 29.2571 157.938 85.0515 69.6481 87.0936C63.4756 85.5442 54.3397 80.4077 67.1756 72.2566C83.2204 62.0678 105.399 94.245 86.1816 104.002C70.8078 111.808 35.3597 105.097 19.5574 100.766" stroke="#119656" stroke-miterlimit="1" stroke-linecap="round" stroke-dasharray="5 5"/>
</svg>
