<svg width="245" height="187" viewBox="0 0 245 187" fill="none" xmlns="http://www.w3.org/2000/svg">
<path d="M228.342 1.59534L211.273 19.3945C210.579 20.1181 210.384 21.1862 210.776 22.1094C211.168 23.0326 212.072 23.6333 213.075 23.636L222.737 23.666L230.154 29.8616C230.901 30.486 231.94 30.6195 232.818 30.2104C232.844 30.1982 232.87 30.1858 232.896 30.1728C233.79 29.7185 234.327 28.7753 234.262 27.7745L232.652 3.16689C232.587 2.17554 231.943 1.31577 231.01 0.975458C230.076 0.635287 229.029 0.878828 228.342 1.59534ZM228.877 22.2638L225.257 19.2389C224.808 18.864 224.242 18.6577 223.657 18.6561L218.942 18.6414L228.021 9.17316L228.877 22.2638Z" fill="#119656"/>
<path d="M-20.5384 129.439C10.6304 154.384 91.3542 178.393 164.899 74.8654C168.025 66.2592 169.266 51.2216 149.22 59.921C124.162 70.7952 144.62 123.238 171.719 108.236C193.398 96.2337 213.957 48.5774 221.527 26.2495" stroke="#119656" stroke-miterlimit="1" stroke-linecap="round" stroke-dasharray="5 5"/>
</svg>
