<svg width="234" height="127" viewBox="0 0 234 127" fill="none" xmlns="http://www.w3.org/2000/svg">
<path d="M224.993 125.449L205.923 112.47C205.148 111.942 204.761 111.003 204.941 110.082C205.121 109.161 205.832 108.436 206.749 108.239L215.586 106.339L221.171 99.233C221.734 98.5167 222.659 98.1933 223.542 98.3974C223.569 98.4034 223.595 98.4098 223.621 98.4168C224.527 98.6592 225.201 99.4182 225.335 100.347L228.633 123.176C228.766 124.095 228.342 125.007 227.554 125.499C226.766 125.991 225.76 125.971 224.993 125.449ZM221.476 106.433L218.749 109.902C218.411 110.332 217.933 110.631 217.399 110.745L213.086 111.673L223.231 118.577L221.476 106.433Z" fill="#119656"/>
<path d="M-26.681 57.1536C-3.11242 28.4834 65.78 -8.85539 152.801 71.1509C157.314 78.3758 161.353 91.8108 141.409 87.7518C116.479 82.6781 124.972 31.062 152.559 39.4975C174.63 46.2459 202.576 85.6292 213.791 104.477" stroke="#119656" stroke-miterlimit="1" stroke-linecap="round" stroke-dasharray="5 5"/>
</svg>
