<svg width="166" height="133" viewBox="0 0 166 133" fill="none" xmlns="http://www.w3.org/2000/svg">
<path d="M2.66132 94.6701L19.6495 91.7722C20.3402 91.6543 21.0348 91.9597 21.4153 92.5483C21.7957 93.1369 21.7886 93.8957 21.397 94.4769L17.6266 100.078L18.3035 106.797C18.3717 107.474 18.0417 108.128 17.4606 108.476C17.4433 108.486 17.426 108.496 17.4084 108.506C16.7951 108.845 16.039 108.786 15.4856 108.356L1.88074 97.7797C1.33271 97.3535 1.08796 96.6437 1.25699 95.9704C1.42622 95.2969 1.97759 94.7866 2.66132 94.6701ZM14.4083 103.081L14.0779 99.8007C14.0369 99.394 14.1394 98.9859 14.3676 98.647L16.2078 95.9132L7.17085 97.4548L14.4083 103.081Z" fill="#119656"/>
<path d="M173.487 1C175.661 28.6419 157.938 84.4364 69.6481 86.4785C63.4756 84.9291 54.3397 79.7925 67.1756 71.6415C83.2204 61.4527 105.399 93.6299 86.1816 103.387C70.8078 111.193 35.3597 104.482 19.5574 100.15" stroke="#119656" stroke-miterlimit="1" stroke-linecap="round" stroke-dasharray="5 5"/>
</svg>
