<svg width="73" height="63" viewBox="0 0 73 63" fill="none" xmlns="http://www.w3.org/2000/svg">
<path d="M5.8943 62.2575L12.099 56.2422C12.3514 55.9976 12.4335 55.6261 12.3081 55.2978C12.1826 54.9696 11.8735 54.7477 11.5223 54.7339L8.13895 54.6002L5.62093 52.3361C5.36711 52.1079 5.00506 52.048 4.69216 52.18C4.68288 52.1839 4.67365 52.188 4.6645 52.1922C4.34561 52.3399 4.14552 52.6633 4.15561 53.0146L4.40489 61.6522C4.41499 62.0002 4.62969 62.3095 4.95221 62.4406C5.27484 62.5716 5.64464 62.4996 5.8943 62.2575ZM5.97078 55.013L7.20017 56.1184C7.35258 56.2554 7.54806 56.3349 7.75281 56.3429L9.40402 56.4081L6.10336 59.608L5.97078 55.013Z" fill="#119656"/>
<path d="M94.3965 20.8851C83.8562 11.8173 56.0307 2.46124 29.0516 37.5799C27.8501 40.5363 27.2222 45.7544 34.3225 42.9753C43.1978 39.5013 36.7479 20.9961 27.1076 25.8816C19.3953 29.7899 11.6103 46.1207 8.68189 53.7976" stroke="#119656" stroke-miterlimit="1" stroke-linecap="round" stroke-dasharray="5 5"/>
</svg>
