<svg width="61" height="79" viewBox="0 0 61 79" fill="none" xmlns="http://www.w3.org/2000/svg">
<path d="M50.2225 0.744945L45.4943 7.97866C45.302 8.27276 45.3036 8.65327 45.4982 8.94587C45.6929 9.23846 46.0433 9.38686 46.3889 9.32293L49.7187 8.70851L52.6734 10.3627C52.9712 10.5294 53.3376 10.5082 53.6137 10.3105C53.6219 10.3047 53.63 10.2987 53.638 10.2925C53.9165 10.0783 54.0405 9.71872 53.9533 9.37828L51.8086 1.00747C51.7221 0.670254 51.4446 0.41582 51.1012 0.358971C50.7576 0.30219 50.4127 0.453772 50.2225 0.744945ZM51.7428 7.82853L50.3002 7.02091C50.1213 6.9208 49.9132 6.88635 49.7117 6.92359L48.0866 7.22346L50.6018 3.37548L51.7428 7.82853Z" fill="#119656"/>
<path d="M-27 60.5862C-14.722 67.1111 14.4806 70.1117 33.0664 29.9152C33.5875 26.7668 33.0512 21.5384 26.7369 25.8126C18.8441 31.1552 29.2098 47.7864 37.538 40.8985C44.2007 35.3882 48.1994 17.7442 49.3659 9.61093" stroke="#119656" stroke-miterlimit="1" stroke-linecap="round" stroke-dasharray="5 5"/>
</svg>
