<svg width="63" height="85" viewBox="0 0 63 85" fill="none" xmlns="http://www.w3.org/2000/svg">
<path d="M61.498 71.8162L53.8256 67.839C53.5137 67.6773 53.1353 67.7171 52.8637 67.9402C52.5922 68.1633 52.4797 68.5268 52.5781 68.8642L53.5241 72.1154L52.1753 75.2214C52.0393 75.5345 52.0973 75.8969 52.3217 76.1517C52.3284 76.1593 52.3351 76.1668 52.3421 76.1741C52.5832 76.4297 52.9534 76.5169 53.2834 76.396L61.3962 73.4207C61.723 73.3008 61.9483 72.9991 61.9703 72.6516C61.9923 72.3041 61.8068 71.9762 61.498 71.8162ZM54.6031 74.0408L55.2616 72.5243C55.3432 72.3364 55.3566 72.1258 55.2993 71.929L54.8376 70.3424L58.9189 72.458L54.6031 74.0408Z" fill="#119656"/>
<path d="M-5.80237 1C-11.0601 13.8717 -11.1102 43.228 30.751 57.6792C33.9358 57.8812 39.0838 56.8221 34.1966 50.9694C28.0877 43.6536 12.5826 55.6385 20.2727 63.2322C26.4249 69.3072 44.3815 71.5122 52.5908 71.8552" stroke="#119656" stroke-miterlimit="1" stroke-linecap="round" stroke-dasharray="5 5"/>
</svg>
