<svg width="63" height="79" viewBox="0 0 63 79" fill="none" xmlns="http://www.w3.org/2000/svg">
<path d="M52.2225 0.744945L47.4943 7.97866C47.302 8.27276 47.3036 8.65327 47.4982 8.94587C47.6929 9.23846 48.0433 9.38686 48.3889 9.32293L51.7187 8.70851L54.6734 10.3627C54.9712 10.5294 55.3376 10.5082 55.6137 10.3105C55.6219 10.3047 55.63 10.2987 55.638 10.2925C55.9165 10.0783 56.0405 9.71872 55.9533 9.37828L53.8086 1.00747C53.7221 0.670254 53.4446 0.41582 53.1012 0.358971C52.7576 0.30219 52.4127 0.453772 52.2225 0.744945ZM53.7428 7.82853L52.3002 7.02091C52.1213 6.9208 51.9132 6.88635 51.7117 6.92359L50.0866 7.22346L52.6018 3.37548L53.7428 7.82853Z" fill="#119656"/>
<path d="M-25 60.5862C-12.722 67.1111 16.4806 70.1118 35.0664 29.9152C35.5875 26.7668 35.0512 21.5385 28.7369 25.8126C20.8441 31.1552 31.2098 47.7865 39.538 40.8986C46.2007 35.3882 50.1994 17.7442 51.3659 9.61096" stroke="#119656" stroke-miterlimit="1" stroke-linecap="round" stroke-dasharray="5 5"/>
</svg>
