<svg width="84" height="52" viewBox="0 0 84 52" fill="none" xmlns="http://www.w3.org/2000/svg">
<path d="M1.15342 28.4772L9.78559 28.8876C10.1366 28.9042 10.4439 29.1287 10.5668 29.4579C10.6897 29.7871 10.6045 30.158 10.3501 30.4005L7.90025 32.7378L7.50813 36.1012C7.46859 36.4403 7.23663 36.7246 6.91456 36.8324C6.90501 36.8356 6.89542 36.8387 6.88576 36.8416C6.54887 36.9416 6.18491 36.8313 5.96022 36.5611L0.436221 29.9161C0.213718 29.6483 0.170295 29.2743 0.3256 28.9628C0.481017 28.6512 0.806015 28.4606 1.15342 28.4772ZM6.00071 33.8617L6.19217 32.2195C6.21592 32.0159 6.31004 31.8271 6.45834 31.6857L7.65399 30.545L3.06207 30.3267L6.00071 33.8617Z" fill="#119656"/>
<path d="M94.9048 1C92.9926 14.772 78.3033 40.1888 34.843 31.6799C31.9869 30.2563 28.0657 26.7567 35.2301 24.1471C44.1855 20.8852 51.5819 39.0328 41.1193 41.7416C32.7492 43.9087 16.1111 36.8041 8.83829 32.981" stroke="#119656" stroke-miterlimit="1" stroke-linecap="round" stroke-dasharray="5 5"/>
</svg>
