<svg width="90" height="53" viewBox="0 0 90 53" fill="none" xmlns="http://www.w3.org/2000/svg">
<path d="M3.82942 0.385395L10.7154 5.60715C10.9954 5.81943 11.1218 6.17832 11.0369 6.51934C10.952 6.86036 10.672 7.11797 10.325 7.17402L6.9826 7.71544L4.75651 10.2671C4.53211 10.5243 4.17996 10.6276 3.8534 10.5343C3.84371 10.5315 3.83406 10.5286 3.82447 10.5255C3.49008 10.4174 3.25238 10.1205 3.21997 9.77062L2.42403 1.16615C2.39202 0.819501 2.56779 0.486542 2.87211 0.317473C3.17656 0.148437 3.55234 0.175174 3.82942 0.385395ZM4.78044 7.5676L5.86731 6.32179C6.00205 6.16736 6.1865 6.06489 6.38878 6.03219L8.02002 5.76796L4.357 2.99025L4.78044 7.5676Z" fill="#119656"/>
<path d="M96.6812 30.7644C87.3134 41.0391 60.8218 53.6878 29.7981 22.0853C28.2483 19.2956 26.9946 14.1916 34.3786 16.0927C43.6086 18.4691 39.4413 37.6179 29.2814 33.9328C21.1535 30.9847 11.4529 15.7138 7.61852 8.44691" stroke="#119656" stroke-miterlimit="1" stroke-linecap="round" stroke-dasharray="5 5"/>
</svg>
