<svg width="90" height="53" viewBox="0 0 90 53" fill="none" xmlns="http://www.w3.org/2000/svg">
<path d="M3.82942 0.385975L10.7154 5.60773C10.9954 5.82001 11.1218 6.1789 11.0369 6.51992C10.952 6.86094 10.672 7.11855 10.325 7.1746L6.9826 7.71602L4.75651 10.2677C4.53211 10.5249 4.17996 10.6282 3.8534 10.5349C3.84371 10.5321 3.83406 10.5292 3.82447 10.5261C3.49008 10.418 3.25238 10.1211 3.21997 9.77119L2.42403 1.16673C2.39202 0.82008 2.56779 0.487122 2.87211 0.318053C3.17656 0.149016 3.55234 0.175754 3.82942 0.385975ZM4.78044 7.56818L5.86731 6.32237C6.00205 6.16794 6.1865 6.06547 6.38878 6.03277L8.02002 5.76854L4.357 2.99083L4.78044 7.56818Z" fill="#119656"/>
<path d="M96.6812 30.7647C87.3134 41.0394 60.8218 53.6881 29.7981 22.0856C28.2483 19.2959 26.9946 14.1919 34.3786 16.093C43.6086 18.4694 39.4413 37.6182 29.2814 33.9331C21.1535 30.985 11.4529 15.7141 7.61852 8.44718" stroke="#119656" stroke-miterlimit="1" stroke-linecap="round" stroke-dasharray="5 5"/>
</svg>
