<svg width="90" height="53" viewBox="0 0 90 53" fill="none" xmlns="http://www.w3.org/2000/svg">
<path d="M3.82942 0.386005L10.7154 5.60776C10.9954 5.82004 11.1218 6.17893 11.0369 6.51995C10.952 6.86097 10.672 7.11858 10.325 7.17463L6.9826 7.71605L4.75651 10.2677C4.53211 10.5249 4.17996 10.6282 3.8534 10.5349C3.84371 10.5321 3.83406 10.5292 3.82447 10.5261C3.49008 10.4181 3.25238 10.1212 3.21997 9.77123L2.42403 1.16676C2.39202 0.820111 2.56779 0.487152 2.87211 0.318083C3.17656 0.149047 3.55234 0.175784 3.82942 0.386005ZM4.78044 7.56821L5.86731 6.3224C6.00205 6.16797 6.1865 6.0655 6.38878 6.0328L8.02002 5.76857L4.357 2.99086L4.78044 7.56821Z" fill="#119656"/>
<path d="M96.6812 30.7646C87.3134 41.0393 60.8218 53.6881 29.7981 22.0856C28.2483 19.2959 26.9946 14.1918 34.3786 16.093C43.6086 18.4694 39.4413 37.6182 29.2814 33.933C21.1535 30.9849 11.4529 15.7141 7.61852 8.44715" stroke="#119656" stroke-miterlimit="1" stroke-linecap="round" stroke-dasharray="5 5"/>
</svg>
