<svg width="73" height="63" viewBox="0 0 73 63" fill="none" xmlns="http://www.w3.org/2000/svg">
<path d="M5.8943 62.2574L12.099 56.2421C12.3514 55.9975 12.4335 55.626 12.3081 55.2977C12.1826 54.9694 11.8735 54.7475 11.5223 54.7338L8.13895 54.6001L5.62093 52.336C5.36711 52.1078 5.00506 52.0478 4.69216 52.1799C4.68288 52.1838 4.67365 52.1878 4.6645 52.1921C4.34561 52.3398 4.14552 52.6632 4.15561 53.0145L4.40489 61.6521C4.41499 62.0001 4.62969 62.3094 4.95221 62.4404C5.27484 62.5715 5.64464 62.4995 5.8943 62.2574ZM5.97078 55.0129L7.20017 56.1183C7.35258 56.2553 7.54806 56.3347 7.75281 56.3428L9.40402 56.408L6.10336 59.6079L5.97078 55.0129Z" fill="#119656"/>
<path d="M94.3965 20.8853C83.8562 11.8174 56.0307 2.46136 29.0516 37.58C27.8501 40.5364 27.2222 45.7546 34.3225 42.9754C43.1978 39.5015 36.7479 20.9963 27.1076 25.8817C19.3953 29.79 11.6103 46.1209 8.68189 53.7977" stroke="#119656" stroke-miterlimit="1" stroke-linecap="round" stroke-dasharray="5 5"/>
</svg>
