<svg width="48" height="48" viewBox="0 0 48 48" fill="none" xmlns="http://www.w3.org/2000/svg">
<g clip-path="url(#clip0)">
<path d="M43.094 7.77243L24.719 0.143332C24.2587 -0.0477305 23.7412 -0.0478242 23.281 0.143332L4.90603 7.77243C4.20619 8.06305 3.75 8.7463 3.75 9.50408V18.7783C3.75 31.5483 11.4683 43.0352 23.2914 47.861C23.7456 48.0463 24.2543 48.0463 24.7086 47.861C36.5315 43.0353 44.25 31.5484 44.25 18.7783V9.50408C44.25 8.7463 43.7939 8.06305 43.094 7.77243ZM40.5 18.7783C40.5 29.6341 34.125 39.6276 24 44.0884C14.1456 39.7467 7.5 29.9283 7.5 18.7783V10.7558L24 3.90514L40.5 10.7558V18.7783ZM21.9276 25.0984L29.9867 17.0393C30.7189 16.3071 31.906 16.3071 32.6383 17.0393C33.3706 17.7716 33.3705 18.9588 32.6382 19.691L23.2534 29.0758C22.521 29.8082 21.3338 29.8079 20.6017 29.0758L15.3617 23.8357C14.6294 23.1035 14.6294 21.9163 15.3617 21.1841C16.094 20.4519 17.2811 20.4518 18.0133 21.1841L21.9276 25.0984Z" fill="#119656"/>
</g>
<defs>
<clipPath id="clip0">
<rect width="48" height="48" fill="white"/>
</clipPath>
</defs>
</svg>
