<svg width="32" height="32" viewBox="0 0 32 32" fill="none" xmlns="http://www.w3.org/2000/svg">
<g clip-path="url(#clip0)">
<path d="M30.8733 18.524C31.828 10.488 30.4147 5.4147 27.8653 3.12003L27.8667 3.1187C23.752 -0.799967 9.85601 -1.37997 4.93335 3.2947C2.72268 5.58137 1.94401 8.93737 1.85868 13.092C1.77335 17.248 1.67201 25.0334 8.92668 27.1454H8.93335L8.92668 30.3707C8.92668 30.3707 8.87735 31.6774 9.71201 31.94C10.6667 32.2494 11.0987 31.6427 14.068 28.096C19.0333 28.5267 22.8467 27.54 23.28 27.396C24.2827 27.06 29.956 26.3094 30.8733 18.524ZM14.5573 25.8267C14.5573 25.8267 11.4147 29.7454 10.4373 30.7627C10.1173 31.0934 9.76668 31.0627 9.77201 30.4067C9.77201 29.976 9.79601 25.052 9.79601 25.052C3.64535 23.2894 4.00801 16.66 4.07468 13.192C4.14135 9.7227 4.77601 6.88137 6.64801 4.96803C10.9667 0.9187 23.1493 1.82403 26.2533 4.74137C30.048 8.10537 28.6973 17.6094 28.7053 17.9334C27.9253 24.432 23.328 24.844 22.4827 25.1254C22.1213 25.2454 18.768 26.108 14.5573 25.8267Z" fill="white"/>
<path d="M16.296 5.72925C15.7827 5.72925 15.7827 6.52925 16.296 6.53591C20.2787 6.56658 23.5587 9.34258 23.5947 14.4346C23.5947 14.9719 24.3813 14.9653 24.3747 14.4279H24.3733C24.3307 8.94125 20.7493 5.75991 16.296 5.72925Z" fill="white"/>
<path d="M21.5347 13.5907C21.5227 14.1214 22.308 14.1467 22.3147 13.6094C22.38 10.584 20.5147 8.09205 17.0093 7.82938C16.496 7.79205 16.4427 8.59871 16.9547 8.63605C19.9947 8.86671 21.596 10.9414 21.5347 13.5907Z" fill="white"/>
<path d="M20.6947 17.0321C20.036 16.6507 19.3653 16.8881 19.088 17.2627L18.508 18.0134C18.2133 18.3947 17.6627 18.3441 17.6627 18.3441C13.644 17.2814 12.5693 13.0761 12.5693 13.0761C12.5693 13.0761 12.52 12.5067 12.888 12.2014L13.6133 11.6014C13.976 11.3134 14.2053 10.6201 13.836 9.93872C12.8493 8.15606 12.1867 7.54139 11.8493 7.06939C11.4947 6.62539 10.9613 6.52539 10.4067 6.82539H10.3947C9.24132 7.50006 7.97866 8.76272 8.38266 10.0627C9.07199 11.4334 10.3387 15.8027 14.376 19.1041C16.2733 20.6654 19.276 22.2654 20.5507 22.6347L20.5627 22.6534C21.8187 23.0721 23.04 21.7601 23.692 20.5721V20.5627C23.9813 19.9881 23.8853 19.4441 23.4627 19.0881C22.7133 18.3574 21.5827 17.5507 20.6947 17.0321Z" fill="white"/>
<path d="M17.5587 10.8053C18.84 10.88 19.4613 11.5493 19.528 12.924C19.552 13.4613 20.332 13.424 20.308 12.8867C20.2227 11.092 19.2867 10.092 17.6013 9.99866C17.088 9.96799 17.04 10.7747 17.5587 10.8053Z" fill="white"/>
</g>
<defs>
<clipPath id="clip0">
<rect width="32" height="32" fill="white"/>
</clipPath>
</defs>
</svg>
