<svg width="34" height="34" viewBox="0 0 34 34" fill="none" xmlns="http://www.w3.org/2000/svg">
<path fill-rule="evenodd" clip-rule="evenodd" d="M28.2751 5.67812C25.2931 2.69257 21.3272 1.04765 17.1021 1.0459C8.39605 1.0459 1.31055 8.1312 1.30705 16.8396C1.30588 19.6234 2.03311 22.3409 3.41538 24.7362L1.17456 32.9209L9.54778 30.7244C11.8549 31.983 14.4524 32.6462 17.0957 32.647H17.1023C25.8075 32.647 32.8937 25.5611 32.897 16.8523C32.8988 12.6317 31.2574 8.66349 28.2751 5.67812ZM17.1021 29.9795H17.0967C14.7411 29.9785 12.4308 29.3455 10.4149 28.1496L9.93571 27.8649L4.96692 29.1684L6.29316 24.3239L5.98091 23.8273C4.66673 21.737 3.97277 19.3211 3.97394 16.8406C3.97666 9.60238 9.86607 3.71356 17.1074 3.71356C20.614 3.71473 23.9102 5.08202 26.3888 7.5635C28.8673 10.045 30.2315 13.3434 30.2304 16.8513C30.2272 24.0901 24.3382 29.9795 17.1021 29.9795ZM24.3032 20.1472C23.9087 19.9495 21.9682 18.995 21.6064 18.8631C21.2449 18.7314 20.9815 18.6659 20.7186 19.0608C20.4554 19.4557 19.6992 20.3448 19.4688 20.608C19.2385 20.8715 19.0085 20.9045 18.6138 20.7069C18.2191 20.5094 16.9475 20.0925 15.4399 18.748C14.2668 17.7015 13.4748 16.4091 13.2444 16.0142C13.0145 15.6188 13.2425 15.4258 13.4176 15.2087C13.8448 14.6782 14.2726 14.122 14.4041 13.8587C14.5358 13.5953 14.4699 13.3648 14.3711 13.1673C14.2726 12.9698 13.4833 11.0273 13.1545 10.2368C12.8339 9.46756 12.5088 9.57145 12.2664 9.55939C12.0365 9.54791 11.7732 9.54557 11.51 9.54557C11.247 9.54557 10.8194 9.64421 10.4575 10.0395C10.0958 10.4347 9.07639 11.3893 9.07639 13.3319C9.07639 15.2745 10.4906 17.1511 10.6878 17.4145C10.8851 17.6779 13.4709 21.6643 17.4298 23.3736C18.3714 23.7806 19.1064 24.0232 19.6797 24.2051C20.6252 24.5055 21.4853 24.463 22.1655 24.3615C22.9238 24.2481 24.5003 23.4066 24.8295 22.4849C25.1583 21.5629 25.1583 20.7728 25.0594 20.608C24.961 20.4435 24.6978 20.3448 24.3032 20.1472Z" fill="white"/>
</svg>
