<svg width="94" height="94" viewBox="0 0 94 94" fill="none" xmlns="http://www.w3.org/2000/svg">
<path d="M47 0C21.0852 0 0 21.0852 0 47C0 72.9148 21.0852 94 47 94C72.9148 94 94 72.9148 94 47C94 21.0852 72.9148 0 47 0ZM73.2682 34.6316L43.2306 64.4336C41.4637 66.2005 38.6366 66.3183 36.7519 64.5514L20.8496 50.0627C18.9649 48.2957 18.8471 45.3509 20.4962 43.4662C22.2632 41.5815 25.208 41.4637 27.0927 43.2306L39.6967 54.7744L66.5539 27.9173C68.4386 26.0326 71.3835 26.0326 73.2682 27.9173C75.1529 29.802 75.1529 32.7469 73.2682 34.6316Z" fill="#FFB800"/>
</svg>
