<svg width="30" height="30" viewBox="0 0 30 30" fill="none" xmlns="http://www.w3.org/2000/svg">
<path d="M1.03499 16.67C0.708739 17.05 0.549989 17.5338 0.588739 18.0338C0.627489 18.5338 0.857489 18.9888 1.23874 19.3138L10.4925 27.2463C10.8362 27.54 11.2625 27.6975 11.71 27.6975C11.765 27.6975 11.8212 27.695 11.8775 27.69C12.3837 27.645 12.84 27.4038 13.1625 27.0125L28.99 7.74875C29.3075 7.36125 29.4562 6.87375 29.4075 6.375C29.3575 5.87625 29.1187 5.42625 28.7312 5.1075L25.8337 2.7275C25.035 2.0725 23.8525 2.1875 23.195 2.98625L11.0137 17.8125L6.11874 13.6188C5.33374 12.9488 4.14874 13.0375 3.47499 13.8225L1.03499 16.67Z" fill="white"/>
</svg>
