<svg width="27" height="27" viewBox="0 0 27 27" fill="none" xmlns="http://www.w3.org/2000/svg">
<g clip-path="url(#clip0)">
<path d="M15.9736 13.5221L26.4869 3.00856C27.1711 2.3247 27.1711 1.21898 26.4869 0.535116C25.803 -0.148749 24.6973 -0.148749 24.0135 0.535116L13.4999 11.0487L2.98659 0.535116C2.3024 -0.148749 1.19701 -0.148749 0.51314 0.535116C-0.171047 1.21898 -0.171047 2.3247 0.51314 3.00856L11.0264 13.5221L0.51314 24.0357C-0.171047 24.7196 -0.171047 25.8253 0.51314 26.5092C0.853951 26.8503 1.30207 27.0217 1.74986 27.0217C2.19766 27.0217 2.64546 26.8503 2.98659 26.5092L13.4999 15.9956L24.0135 26.5092C24.3546 26.8503 24.8024 27.0217 25.2502 27.0217C25.698 27.0217 26.1458 26.8503 26.4869 26.5092C27.1711 25.8253 27.1711 24.7196 26.4869 24.0357L15.9736 13.5221Z" fill="white"/>
</g>
<defs>
<clipPath id="clip0">
<rect width="27" height="27" fill="white"/>
</clipPath>
</defs>
</svg>
