<svg width="100" height="100" viewBox="0 0 100 100" fill="none" xmlns="http://www.w3.org/2000/svg">
<g clip-path="url(#clip0)">
<path d="M89.9025 32.7026H81.4041C80.5954 32.7026 79.9393 33.3588 79.9393 34.1675C79.9393 34.9762 80.5954 35.6323 81.4041 35.6323H89.9025C90.7112 35.6323 91.3673 34.9762 91.3673 34.1675C91.3673 33.3588 90.7112 32.7026 89.9025 32.7026Z" fill="#FFB800"/>
<path d="M81.4041 23.7603H85.2623C86.071 23.7603 86.7271 23.1041 86.7271 22.2954C86.7271 21.4859 86.071 20.8306 85.2623 20.8306H81.4041C80.5954 20.8306 79.9393 21.4859 79.9393 22.2954C79.9393 23.1041 80.5954 23.7603 81.4041 23.7603Z" fill="#FFB800"/>
<path d="M81.4041 11.8873H86.6295C87.439 11.8873 88.0943 11.232 88.0943 10.4225C88.0943 9.61377 87.439 8.95764 86.6295 8.95764H81.4041C80.5954 8.95764 79.9393 9.61377 79.9393 10.4225C79.9393 11.232 80.5954 11.8873 81.4041 11.8873Z" fill="#FFB800"/>
<path d="M86.6302 56.4476H81.4041C80.5954 56.4476 79.9393 57.103 79.9393 57.9125C79.9393 58.7212 80.5954 59.3773 81.4041 59.3773H86.6302C87.439 59.3773 88.0951 58.7212 88.0951 57.9125C88.0951 57.103 87.439 56.4476 86.6302 56.4476Z" fill="#FFB800"/>
<path d="M81.4041 47.5044H85.2623C86.071 47.5044 86.7271 46.849 86.7271 46.0396C86.7271 45.2308 86.071 44.5747 85.2623 44.5747H81.4041C80.5954 44.5747 79.9393 45.2308 79.9393 46.0396C79.9393 46.849 80.5954 47.5044 81.4041 47.5044Z" fill="#FFB800"/>
<path d="M75.0443 60.5087V13.25C75.0443 5.94406 69.101 0 61.7943 0C54.4891 0 48.5451 5.94406 48.5451 13.25V60.5087C43.0717 64.6545 39.8262 71.1472 39.8262 78.0319C39.8262 90.1451 49.6811 100 61.7943 100C73.9082 100 83.7631 90.1451 83.7631 78.0319C83.7631 71.1472 80.5183 64.6545 75.0443 60.5087ZM61.7943 97.0703C51.297 97.0703 42.7559 88.53 42.7559 78.0319C42.7559 71.843 45.7832 66.0179 50.853 62.4512C51.2428 62.1765 51.4748 61.7294 51.4748 61.2526V13.25C51.4748 7.5592 56.1043 2.92969 61.7943 2.92969C67.485 2.92969 72.1146 7.5592 72.1146 13.25V61.2526C72.1146 61.7294 72.3465 62.1765 72.7364 62.4512C77.8061 66.0187 80.8334 71.843 80.8334 78.0319C80.8334 88.53 72.2923 97.0703 61.7943 97.0703Z" fill="#FFB800"/>
<path d="M68.2068 63.4118V13.25C68.2068 9.71381 65.3305 6.83752 61.7943 6.83752C58.2588 6.83752 55.3825 9.71381 55.3825 13.25V50.8706C55.3825 51.6801 56.0387 52.3354 56.8474 52.3354C57.6561 52.3354 58.3122 51.6801 58.3122 50.8706V23.7603H65.2771V64.3922C65.2771 65.004 65.657 65.5518 66.23 65.7654C71.1708 67.6057 74.4896 72.3855 74.4896 77.6597C74.4896 84.6604 68.795 90.355 61.7943 90.355C54.7943 90.355 49.099 84.6604 49.099 77.6597C49.099 72.3855 52.4185 67.6057 57.3586 65.7654C57.9323 65.5511 58.3122 65.004 58.3122 64.3922V56.7315C58.3122 55.9228 57.6561 55.2666 56.8474 55.2666C56.0387 55.2666 55.3825 55.9228 55.3825 56.7315V63.4118C49.8322 65.9127 46.1693 71.5142 46.1693 77.6597C46.1693 86.2755 53.1792 93.2847 61.7943 93.2847C70.4102 93.2847 77.4193 86.2755 77.4193 77.6597C77.4193 71.5142 73.7572 65.9135 68.2068 63.4118ZM58.3122 20.8306V13.25C58.3122 11.3297 59.8747 9.76721 61.795 9.76721C63.7146 9.76721 65.2771 11.3297 65.2771 13.25V20.8306H58.3122Z" fill="#FFB800"/>
<path d="M40.2 31.2828C42.3866 31.4834 43.3304 28.5736 41.4452 27.4528C39.1525 26.0902 39.1487 22.7707 41.4452 21.4058C43.3319 20.2835 42.3843 17.3744 40.2 17.575C37.542 17.8215 35.5919 15.1336 36.6455 12.6831C37.513 10.6666 35.0357 8.86914 33.3878 10.3157C31.3835 12.075 28.2242 11.0527 27.636 8.44724C27.1522 6.30567 24.0921 6.30796 23.6092 8.44724C23.0217 11.0481 19.8654 12.0773 17.8574 10.3157C16.2086 8.86762 13.7329 10.6674 14.5996 12.6831C15.6548 15.1359 13.7009 17.8207 11.0451 17.575C8.85925 17.3759 7.91473 20.2842 9.80072 21.4058C12.0964 22.7707 12.0918 26.091 9.79995 27.4528C7.91549 28.5736 8.85849 31.4827 11.0451 31.2828C13.7001 31.0364 15.6548 33.7219 14.5996 36.1747C13.7321 38.1912 16.2094 39.9887 17.8574 38.5421C19.8616 36.7828 23.0209 37.8059 23.6092 40.4106C24.0929 42.5522 27.153 42.5499 27.636 40.4106C28.2234 37.8097 31.3805 36.7798 33.3878 38.5421C35.0372 39.9894 37.513 38.1897 36.6455 36.1747C35.5926 33.7272 37.5404 31.0371 40.2 31.2828ZM38.2645 28.5362C35.3088 29.29 33.2367 32.1022 33.4358 35.1822C30.6015 34.0545 27.2728 35.112 25.6233 37.7212C23.9906 35.1387 20.6749 34.0423 17.8101 35.1822C18.0077 32.1312 15.9668 29.2976 12.9814 28.5362C14.93 26.1894 14.9528 22.6967 12.9814 20.3216C15.9508 19.5648 18.0084 16.7434 17.8101 13.6757C20.6505 14.8056 23.9769 13.7413 25.6233 11.1374C27.2606 13.7275 30.5794 14.8117 33.4358 13.6757C33.2382 16.7267 35.2791 19.5602 38.2645 20.3216C36.306 22.6806 36.3014 26.1726 38.2645 28.5362Z" fill="#FFB800"/>
<path d="M25.6226 16.3529C21.1693 16.3529 17.5468 19.9761 17.5468 24.4294C17.5468 28.8827 21.1693 32.5059 25.6226 32.5059C30.0758 32.5059 33.699 28.8827 33.699 24.4294C33.699 19.9761 30.0758 16.3529 25.6226 16.3529ZM25.6226 29.5754C22.7852 29.5754 20.4765 27.2668 20.4765 24.4294C20.4765 21.5912 22.7852 19.2826 25.6226 19.2826C28.4607 19.2826 30.7693 21.5912 30.7693 24.4294C30.7693 27.2668 28.4607 29.5754 25.6226 29.5754Z" fill="#FFB800"/>
</g>
<defs>
<clipPath id="clip0">
<rect width="100" height="100" fill="white"/>
</clipPath>
</defs>
</svg>
