<svg width="110" height="110" viewBox="0 0 110 110" fill="none" xmlns="http://www.w3.org/2000/svg">
<path d="M6.875 104.844C6.87499 105.069 6.91945 105.293 7.00582 105.501C7.09219 105.71 7.21879 105.9 7.3784 106.059C7.538 106.219 7.72747 106.345 7.936 106.432C8.14454 106.518 8.36804 106.563 8.59375 106.562H74.0978C76.4989 106.56 78.8667 106.001 81.0156 104.929L86.4476 102.213C87.2892 101.793 87.9518 101.084 88.3151 100.216C88.6783 99.348 88.7181 98.3786 88.4271 97.4838C88.1362 96.5891 87.5338 95.8284 86.7296 95.3402C85.9253 94.8519 84.9726 94.6684 84.0445 94.8231L79.753 95.5383C79.5229 95.5767 79.2927 95.606 79.0625 95.631V80.7812H80.7813C81.007 80.7813 81.2305 80.7368 81.439 80.6504C81.6475 80.5641 81.837 80.4375 81.9966 80.2779C82.1562 80.1183 82.2828 79.9288 82.3692 79.7202C82.4556 79.5117 82.5 79.2882 82.5 79.0625V75.0546L84.2325 74.337L87.0665 77.171C87.3888 77.4933 87.826 77.6744 88.2818 77.6744C88.7376 77.6744 89.1748 77.4933 89.4971 77.171L94.3585 72.3096C94.5181 72.15 94.6447 71.9606 94.7311 71.752C94.8175 71.5435 94.862 71.32 94.862 71.0943C94.862 70.8686 94.8175 70.6451 94.7311 70.4366C94.6447 70.228 94.5181 70.0386 94.3585 69.879L91.5245 67.045L92.2421 65.3125H96.25C96.4757 65.3125 96.6992 65.2681 96.9077 65.1817C97.1163 65.0953 97.3058 64.9687 97.4654 64.8091C97.625 64.6495 97.7516 64.46 97.8379 64.2515C97.9243 64.043 97.9688 63.8195 97.9688 63.5938V56.7188C97.9688 56.493 97.9243 56.2695 97.8379 56.061C97.7516 55.8525 97.625 55.663 97.4654 55.5034C97.3058 55.3438 97.1163 55.2172 96.9077 55.1308C96.6992 55.0444 96.4757 55 96.25 55H92.2421L91.5245 53.2675L94.3585 50.4335C94.5181 50.2739 94.6447 50.0845 94.7311 49.8759C94.8175 49.6674 94.8619 49.4439 94.8619 49.2182C94.8619 48.9925 94.8175 48.769 94.7311 48.5605C94.6447 48.3519 94.5181 48.1625 94.3585 48.0029L89.4971 43.1415C89.1748 42.8192 88.7376 42.6381 88.2818 42.6381C87.826 42.6381 87.3888 42.8192 87.0665 43.1415L84.2325 45.9755L82.5 45.2578V41.25C82.5 41.0243 82.4556 40.8008 82.3692 40.5923C82.2828 40.3837 82.1562 40.1942 81.9966 40.0346C81.837 39.875 81.6475 39.7484 81.439 39.6621C81.2305 39.5757 81.007 39.5312 80.7812 39.5312H73.9062C73.6805 39.5312 73.457 39.5757 73.2485 39.6621C73.04 39.7484 72.8505 39.875 72.6909 40.0346C72.5313 40.1942 72.4047 40.3837 72.3183 40.5923C72.2319 40.8008 72.1875 41.0243 72.1875 41.25V45.2579L70.455 45.9755L67.621 43.1415C67.2987 42.8192 66.8615 42.6381 66.4057 42.6381C65.9499 42.6381 65.5127 42.8192 65.1904 43.1415L61.5869 46.745L58.5796 44.9907C59.6198 42.7407 60.1578 40.2913 60.1562 37.8125V13.75C60.1542 11.9273 59.4292 10.1798 58.1403 8.8909C56.8515 7.60203 55.104 6.87705 53.2812 6.875H52.3563C51.7531 5.83059 50.8858 4.9632 49.8414 4.35985C48.797 3.75651 47.6124 3.43842 46.4062 3.4375H39.5312C35.8858 3.44163 32.3908 4.89162 29.8131 7.46935C27.2354 10.0471 25.7854 13.542 25.7812 17.1875V37.8125C25.7797 40.2913 26.3177 42.7407 27.3579 44.9907L11.1385 54.4519C9.84311 55.2109 8.76834 56.2951 8.02056 57.597C7.27278 58.899 6.8779 60.3736 6.875 61.875V104.844ZM10.3125 103.125V97.3249C11.8415 99.6242 13.8133 101.596 16.1126 103.125H10.3125ZM80.318 98.929L84.6096 98.2138C84.7134 98.1962 84.82 98.2125 84.9138 98.2603C85.0076 98.308 85.0835 98.3847 85.1304 98.4789C85.1887 98.5956 85.1983 98.7307 85.157 98.8544C85.1158 98.9782 85.0271 99.0805 84.9104 99.1389L79.4783 101.855C77.807 102.688 75.9653 103.123 74.0978 103.125H56.7188V93.697L66.6516 86.6021C66.8303 86.4744 67.0432 86.4035 67.2627 86.3984C67.4823 86.3933 67.6982 86.4543 67.8826 86.5736C68.067 86.6928 68.2113 86.8647 68.2968 87.067C68.3822 87.2693 68.4049 87.4925 68.3619 87.7079L67.0646 94.1942C66.9907 94.5639 67.0403 94.9477 67.206 95.2864C67.3717 95.6251 67.6441 95.8999 67.9814 96.0685L70.8571 97.5064C73.779 98.9752 77.0933 99.4736 80.318 98.929ZM79.0625 77.3438H75.625V73.9062C75.625 73.8681 75.619 73.8311 75.6166 73.7934C76.1893 73.8679 76.7662 73.9055 77.3438 73.9062C77.9213 73.905 78.4981 73.8675 79.0709 73.7939C79.0685 73.8315 79.0625 73.8683 79.0625 73.9062V77.3438ZM66.4057 68.6636C66.4345 68.6347 66.4581 68.6024 66.4845 68.572C67.1967 69.4833 68.0196 70.3022 68.9345 71.0099C68.9017 71.038 68.8673 71.0634 68.8364 71.0943L66.4057 73.525L63.975 71.0943L66.4057 68.6636ZM88.2818 73.525L85.8511 71.0943C85.8228 71.066 85.7911 71.043 85.7612 71.017C86.6744 70.3076 87.4951 69.4869 88.2045 68.5738C88.2305 68.6036 88.2535 68.6353 88.2818 68.6636L90.7125 71.0943L88.2818 73.525ZM94.5312 58.4375V61.875H91.0938C91.0558 61.875 91.019 61.881 90.9814 61.8834C91.055 61.3106 91.0925 60.7338 91.0938 60.1562C91.093 59.5787 91.0554 59.0018 90.9809 58.4291C91.0186 58.4315 91.0556 58.4375 91.0938 58.4375H94.5312ZM88.2818 46.7875L90.7125 49.2182L88.2818 51.649C88.251 51.6798 88.2255 51.7143 88.1974 51.747C87.4898 50.8322 86.6708 50.0092 85.7595 49.2971C85.7899 49.2706 85.8222 49.247 85.8511 49.2182L88.2818 46.7875ZM66.4057 51.6489L63.975 49.2182L66.4057 46.7875L68.8364 49.2182C69.0768 49.4586 69.383 49.6223 69.7165 49.6887C70.0499 49.755 70.3955 49.7209 70.7095 49.5908L74.564 47.9942C74.8781 47.8641 75.1465 47.6438 75.3354 47.3611C75.5242 47.0785 75.625 46.7462 75.625 46.4062V42.9688H79.0625V48.6232C79.0625 48.9935 79.1821 49.3538 79.4034 49.6506C79.6248 49.9475 79.936 50.1649 80.2909 50.2705C82.0023 50.7811 83.5518 51.7274 84.7877 53.0166C86.0236 54.3059 86.9035 55.8939 87.3414 57.6253C87.7793 59.3568 87.7601 61.1722 87.2858 62.894C86.8114 64.6158 85.8981 66.1849 84.6352 67.4477C83.3724 68.7106 81.8033 69.6239 80.0815 70.0983C78.3597 70.5726 76.5443 70.5918 74.8128 70.1539C73.0814 69.716 71.4934 68.8361 70.2041 67.6002C68.9149 66.3643 67.9686 64.8148 67.458 63.1034C67.3524 62.7485 67.135 62.4373 66.8381 62.2159C66.5413 61.9946 66.181 61.875 65.8107 61.875H60.1562V58.4375H63.5938C63.9337 58.4375 64.266 58.3367 64.5486 58.1478C64.8313 57.959 65.0516 57.6906 65.1817 57.3765L66.7783 53.522C66.9084 53.2079 66.9424 52.8624 66.8761 52.529C66.8098 52.1956 66.6461 51.8893 66.4057 51.6489ZM46.3338 76.7044L42.9688 80.0693L39.6037 76.7044L41.0867 61.875H44.8508L46.3338 76.7044ZM46.4062 54.7211L45.1674 58.4375H40.7701L39.5312 54.7211V54.6541C41.7997 55.1153 44.1378 55.1153 46.4062 54.6541V54.7211ZM42.9688 51.5625C39.3233 51.5584 35.8283 50.1084 33.2506 47.5307C30.6729 44.9529 29.2229 41.458 29.2188 37.8125V21.337L32.6562 17.8994C33.1121 17.4436 33.7304 17.1875 34.375 17.1875C35.0196 17.1875 35.6379 17.4436 36.0938 17.8994L38.8194 20.625C39.3643 21.1699 40.0112 21.6022 40.7231 21.8971C41.4351 22.192 42.1981 22.3438 42.9688 22.3438C43.7394 22.3438 44.5024 22.192 45.2144 21.8971C45.9263 21.6022 46.5732 21.1699 47.1181 20.625L49.8438 17.8994C50.2996 17.4436 50.9179 17.1875 51.5625 17.1875C52.2071 17.1875 52.8254 17.4436 53.2812 17.8994L56.7188 21.337V37.8125C56.7146 41.458 55.2646 44.9529 52.6869 47.5307C50.1092 50.1084 46.6142 51.5584 42.9688 51.5625ZM56.7188 13.75V16.4756L55.7119 15.4688C55.0344 14.7883 54.1995 14.2854 53.2812 14.0047V10.3125C54.1926 10.3135 55.0663 10.676 55.7108 11.3205C56.3552 11.9649 56.7177 12.8386 56.7188 13.75ZM39.5312 6.875H46.4062C47.3176 6.87604 48.1913 7.23854 48.8358 7.88297C49.4802 8.5274 49.8427 9.40114 49.8438 10.3125V14.0047C48.9255 14.2854 48.0906 14.7883 47.4131 15.4688L44.6875 18.1944C44.2316 18.6502 43.6134 18.9062 42.9688 18.9062C42.3241 18.9062 41.7059 18.6502 41.25 18.1944L38.5244 15.4688C37.9795 14.9238 37.3326 14.4916 36.6206 14.1967C35.9087 13.9018 35.1456 13.75 34.375 13.75C33.6044 13.75 32.8413 13.9018 32.1294 14.1967C31.4174 14.4916 30.7705 14.9238 30.2256 15.4688L29.2483 16.446C29.4383 13.8476 30.6038 11.417 32.5109 9.64191C34.4181 7.86681 36.9258 6.87842 39.5312 6.875ZM10.3125 61.875C10.3142 60.9741 10.5512 60.0894 10.9998 59.3082C11.4485 58.527 12.0933 57.8765 12.8706 57.4211L29.1027 47.9524C30.8995 50.4039 33.3109 52.3383 36.0938 53.5606V55C36.0938 55.1847 36.1235 55.3683 36.182 55.5435L37.7844 60.3509L36.1022 77.1728C36.0769 77.4261 36.1082 77.6818 36.1938 77.9216C36.2794 78.1613 36.4172 78.3791 36.5972 78.5591L41.7534 83.7153C41.913 83.8749 42.1025 84.0015 42.311 84.0879C42.5195 84.1743 42.743 84.2188 42.9688 84.2188C43.1945 84.2188 43.418 84.1743 43.6265 84.0879C43.835 84.0015 44.0245 83.8749 44.1841 83.7153L49.3403 78.5591C49.5203 78.3791 49.6581 78.1613 49.7437 77.9216C49.8293 77.6818 49.8606 77.4261 49.8353 77.1728L48.1531 60.3509L49.7555 55.5435C49.814 55.3683 49.8437 55.1847 49.8438 55V53.5606C52.6266 52.3384 55.038 50.4039 56.8348 47.9524L59.9099 49.7462C59.9929 50.0054 60.1366 50.2411 60.329 50.4335L63.163 53.2675L62.4454 55H58.4375C58.2118 55 57.9883 55.0444 57.7798 55.1308C57.5712 55.2172 57.3817 55.3438 57.2221 55.5034C57.0625 55.663 56.9359 55.8525 56.8496 56.061C56.7632 56.2695 56.7187 56.493 56.7188 56.7188V63.5938C56.7187 63.8195 56.7632 64.043 56.8496 64.2515C56.9359 64.46 57.0625 64.6495 57.2221 64.8091C57.3817 64.9687 57.5712 65.0953 57.7798 65.1817C57.9883 65.2681 58.2118 65.3125 58.4375 65.3125H62.4453L63.163 67.045L60.329 69.879C60.1694 70.0386 60.0428 70.228 59.9564 70.4366C59.87 70.6451 59.8256 70.8686 59.8256 71.0943C59.8256 71.32 59.87 71.5435 59.9564 71.752C60.0428 71.9606 60.1694 72.15 60.329 72.3096L65.1904 77.171C65.5127 77.4933 65.9499 77.6744 66.4057 77.6744C66.8615 77.6744 67.2987 77.4933 67.621 77.171L70.455 74.337L72.1875 75.0546V79.0625C72.1875 79.2882 72.2319 79.5117 72.3183 79.7202C72.4047 79.9288 72.5313 80.1183 72.6909 80.2779C72.8505 80.4375 73.04 80.5641 73.2485 80.6504C73.457 80.7368 73.6805 80.7813 73.9062 80.7812H75.625V95.5106C74.5024 95.306 73.4146 94.9428 72.3944 94.4319L70.6928 93.581L71.7326 88.382C71.9109 87.4907 71.817 86.5665 71.4633 85.7292C71.1096 84.892 70.5124 84.1804 69.7492 83.6869C68.9859 83.1934 68.0919 82.9408 67.1833 82.9618C66.2746 82.9828 65.3933 83.2765 64.6537 83.8048L54.5882 90.9945L31.7602 86.966C30.5659 86.7567 29.4837 86.1327 28.7044 85.2038C27.9251 84.2749 27.4985 83.1008 27.5 81.8883V72.1875H24.0625V81.8883C24.0601 83.9092 24.7709 85.8661 26.0698 87.4142C27.3687 88.9624 29.1723 90.0025 31.1628 90.3512L53.2812 94.2545V103.125H27.5C22.9432 103.12 18.5744 101.307 15.3523 98.0852C12.1301 94.8631 10.3176 90.4943 10.3125 85.9375V61.875Z" fill="#FFB800"/>
<path d="M37.8125 25.7812H34.375C33.4258 25.7812 32.6562 26.5508 32.6562 27.5C32.6562 28.4492 33.4258 29.2188 34.375 29.2188H37.8125C38.7617 29.2188 39.5312 28.4492 39.5312 27.5C39.5312 26.5508 38.7617 25.7812 37.8125 25.7812Z" fill="#FFB800"/>
<path d="M42.9688 39.5312C42.9682 39.9869 42.787 40.4238 42.4648 40.746C42.1425 41.0682 41.7057 41.2495 41.25 41.25C40.3008 41.25 39.5312 42.0195 39.5312 42.9688C39.5312 43.918 40.3008 44.6875 41.25 44.6875C42.6171 44.686 43.9277 44.1422 44.8943 43.1756C45.861 42.2089 46.4047 40.8983 46.4062 39.5312V37.8125C46.4062 36.8633 45.6367 36.0938 44.6875 36.0938C43.7383 36.0938 42.9688 36.8633 42.9688 37.8125V39.5312Z" fill="#FFB800"/>
<path d="M36.0938 34.375C37.043 34.375 37.8125 33.6055 37.8125 32.6562C37.8125 31.707 37.043 30.9375 36.0938 30.9375C35.1445 30.9375 34.375 31.707 34.375 32.6562C34.375 33.6055 35.1445 34.375 36.0938 34.375Z" fill="#FFB800"/>
<path d="M51.5625 25.7812H48.125C47.1758 25.7812 46.4062 26.5508 46.4062 27.5C46.4062 28.4492 47.1758 29.2188 48.125 29.2188H51.5625C52.5117 29.2188 53.2812 28.4492 53.2812 27.5C53.2812 26.5508 52.5117 25.7812 51.5625 25.7812Z" fill="#FFB800"/>
<path d="M49.8438 34.375C50.793 34.375 51.5625 33.6055 51.5625 32.6562C51.5625 31.707 50.793 30.9375 49.8438 30.9375C48.8945 30.9375 48.125 31.707 48.125 32.6562C48.125 33.6055 48.8945 34.375 49.8438 34.375Z" fill="#FFB800"/>
<path d="M77.3438 67.0313C78.7035 67.0313 80.0327 66.6281 81.1633 65.8726C82.2939 65.1172 83.1751 64.0435 83.6954 62.7872C84.2158 61.531 84.3519 60.1486 84.0867 58.815C83.8214 57.4814 83.1666 56.2564 82.2051 55.2949C81.2436 54.3334 80.0186 53.6786 78.685 53.4134C77.3514 53.1481 75.969 53.2842 74.7128 53.8046C73.4566 54.3249 72.3828 55.2061 71.6274 56.3367C70.872 57.4673 70.4688 58.7965 70.4688 60.1563C70.4708 61.979 71.1958 63.7265 72.4847 65.0154C73.7735 66.3042 75.521 67.0292 77.3438 67.0313ZM77.3438 56.7188C78.0236 56.7188 78.6882 56.9204 79.2535 57.2981C79.8188 57.6758 80.2594 58.2127 80.5196 58.8408C80.7798 59.4689 80.8478 60.1601 80.7152 60.8269C80.5826 61.4937 80.2552 62.1062 79.7744 62.5869C79.2937 63.0677 78.6812 63.3951 78.0144 63.5277C77.3476 63.6603 76.6564 63.5923 76.0283 63.3321C75.4002 63.0719 74.8633 62.6313 74.4856 62.066C74.1079 61.5007 73.9063 60.8361 73.9063 60.1563C73.9073 59.2449 74.2698 58.3712 74.9142 57.7267C75.5587 57.0823 76.4324 56.7198 77.3438 56.7188Z" fill="#FFB800"/>
</svg>
