<svg width="56" height="56" viewBox="0 0 56 56" fill="none" xmlns="http://www.w3.org/2000/svg">
<path d="M3.5 5H52.5C53.6026 5 54.5 5.89895 54.5 7V26.25C54.5 39.8976 43.3976 51 29.75 51H26.25C12.6024 51 1.5 39.8976 1.5 26.25V7C1.5 5.89993 2.39993 5 3.5 5ZM29.5097 38.5352L43.5097 24.5352C45.4639 22.5809 45.4639 19.4191 43.5097 17.4648C41.5554 15.5106 38.3936 15.5106 36.4393 17.4648L30.6766 23.2276L25.9745 27.9297L21.9842 23.9393C20.0299 21.9851 16.8681 21.9851 14.9138 23.9393C12.9596 25.8936 12.9596 29.0554 14.9138 31.0097L22.4393 38.5352C23.4138 39.5096 24.696 40 25.9745 40C27.253 40 28.5352 39.5096 29.5097 38.5352Z" stroke="#49311B" stroke-width="3"/>
</svg>
