<svg width="54" height="54" viewBox="0 0 54 54" fill="none" xmlns="http://www.w3.org/2000/svg">
<path d="M47.5664 0H6.43359C3.8166 0 1.6875 2.1291 1.6875 4.74609C1.6875 6.04104 1.6875 27.9332 1.6875 28.6875C1.6875 42.6771 13.0086 54 27 54C40.9895 54 52.3125 42.679 52.3125 28.6875C52.3125 27.9372 52.3125 6.03534 52.3125 4.74609C52.3125 2.1291 50.1834 0 47.5664 0ZM49.1484 28.6875C49.1484 40.9001 39.2126 50.8359 27 50.8359C14.7874 50.8359 4.85156 40.9001 4.85156 28.6875V19.95L8.01562 21.2157V23.3086C8.01562 24.1823 8.72395 24.8906 9.59766 24.8906C10.4714 24.8906 11.1797 24.1823 11.1797 23.3086V22.4813L24.0623 27.6343C25.0095 28.0131 26.0048 28.2026 27 28.2026C27.9952 28.2026 28.9905 28.0131 29.9377 27.6343L42.8203 22.4813V23.3086C42.8203 24.1823 43.5286 24.8906 44.4023 24.8906C45.276 24.8906 45.9844 24.1823 45.9844 23.3086V21.2157L49.1484 19.95V28.6875ZM49.1484 16.5421C46.8152 17.4754 30.7721 23.8927 28.7626 24.6965C27.626 25.1511 26.3739 25.1511 25.2374 24.6965C23.2487 23.901 5.82388 16.9311 4.85156 16.5421V4.74609C4.85156 3.87376 5.56126 3.16406 6.43359 3.16406H47.5664C48.4387 3.16406 49.1484 3.87376 49.1484 4.74609V16.5421Z" fill="#49311B"/>
<path d="M12.452 34.3986C11.7654 32.7118 11.3518 30.9387 11.2229 29.1284C11.1608 28.2569 10.405 27.6009 9.53259 27.6627C8.661 27.7248 8.00488 28.4816 8.067 29.3532C8.21961 31.4966 8.70899 33.5954 9.52162 35.5915C9.85164 36.4023 10.7754 36.7891 11.5833 36.4604C12.3925 36.1309 12.7816 35.2079 12.452 34.3986Z" fill="#49311B"/>
<path d="M31.5793 45.5536C31.428 44.6931 30.6087 44.1179 29.7473 44.2693C27.9169 44.591 26.0501 44.5744 24.3809 44.293C23.5198 44.1476 22.7032 44.7285 22.5579 45.59C22.4125 46.4514 22.9932 47.2677 23.8547 47.413C25.899 47.7578 28.1221 47.7675 30.295 47.3856C31.1555 47.2343 31.7305 46.4141 31.5793 45.5536Z" fill="#49311B"/>
<path d="M19.3673 42.4748C17.8271 41.5789 16.4432 40.4169 15.2546 39.021C14.6881 38.3557 13.6894 38.2757 13.0244 38.8422C12.3592 39.4088 12.2792 40.4073 12.8457 41.0725C14.267 42.7415 15.926 44.1336 17.7764 45.2099C18.5317 45.6492 19.5002 45.3931 19.9394 44.6377C20.3788 43.8825 20.1226 42.914 19.3673 42.4748Z" fill="#49311B"/>
<path d="M44.4442 27.6768C43.5684 27.6491 42.8401 28.3337 42.8118 29.2069C42.7531 31.0168 42.3893 32.7842 41.7301 34.4597C41.4104 35.2729 41.8102 36.1913 42.6233 36.5111C43.4365 36.831 44.3549 36.431 44.6747 35.618C45.4667 33.6046 45.9039 31.4819 45.9742 29.3092C46.0025 28.4359 45.3174 27.7051 44.4442 27.6768Z" fill="#49311B"/>
<path d="M41.1783 38.8897C40.5186 38.3168 39.5193 38.3874 38.9465 39.0469C37.7594 40.4138 36.362 41.5593 34.7931 42.4514C34.0336 42.8833 33.7679 43.8491 34.1999 44.6086C34.6338 45.3719 35.6012 45.6318 36.3572 45.2019C38.238 44.1323 39.9131 42.7596 41.3354 41.1215C41.9084 40.4618 41.838 39.4626 41.1783 38.8897Z" fill="#49311B"/>
<path d="M27 6.53906C23.5107 6.53906 20.6719 9.37786 20.6719 12.8672C20.6719 16.3565 23.5107 19.1953 27 19.1953C30.4893 19.1953 33.3281 16.3565 33.3281 12.8672C33.3281 9.37786 30.4893 6.53906 27 6.53906ZM27 16.0312C25.2553 16.0312 23.8359 14.6119 23.8359 12.8672C23.8359 11.1225 25.2553 9.70312 27 9.70312C28.7447 9.70312 30.1641 11.1225 30.1641 12.8672C30.1641 14.6119 28.7447 16.0312 27 16.0312Z" fill="#49311B"/>
</svg>
