<svg width="82" height="82" viewBox="0 0 82 82" fill="none" xmlns="http://www.w3.org/2000/svg">
<path d="M33.9531 58.7773H48.207C53.506 58.7773 57.8164 54.4669 57.8164 49.168V42.2168C59.2785 41.9203 60.3789 40.6278 60.3789 39.0781V27.8672C60.3789 26.098 58.945 24.6641 57.1758 24.6641H24.9844C23.2151 24.6641 21.7812 26.098 21.7812 27.8672V39.0781C21.7812 40.6278 22.8817 41.9203 24.3438 42.2168V49.168C24.3438 54.4669 28.6542 58.7773 33.9531 58.7773ZM48.207 52.3711H33.9531C32.187 52.3711 30.75 50.9341 30.75 49.168V42.6016H38.1172V43.8828C38.1172 45.652 39.5511 47.0859 41.3203 47.0859C43.0895 47.0859 44.5234 45.652 44.5234 43.8828V42.6016H51.4102V49.168C51.4102 50.9341 49.9731 52.3711 48.207 52.3711ZM28.1875 31.0703H53.9727V35.875H28.1875V31.0703ZM0 21.4609V13.7734C0 12.0042 1.4339 10.5703 3.20312 10.5703C4.97235 10.5703 6.40625 12.0042 6.40625 13.7734V18.9841C9.55807 14.0368 13.7434 9.80457 18.7133 6.5808C25.3497 2.27597 33.056 0 41 0C51.9513 0 62.2476 4.26479 69.9914 12.0086C77.7352 19.7524 82 30.0487 82 41C82 42.7692 80.5661 44.2031 78.7969 44.2031C77.0276 44.2031 75.5938 42.7692 75.5938 41C75.5938 21.9251 60.0749 6.40625 41 6.40625C28.8819 6.40625 17.6378 12.8375 11.4149 23.0625H15.6953C17.4645 23.0625 18.8984 24.4964 18.8984 26.2656C18.8984 28.0349 17.4645 29.4688 15.6953 29.4688H8.00781C3.59225 29.4688 0 25.8765 0 21.4609ZM82 60.5391V68.0664C82 69.8356 80.5661 71.2695 78.7969 71.2695C77.0276 71.2695 75.5938 69.8356 75.5938 68.0664V62.7644C72.4244 67.8205 68.1803 72.1404 63.1266 75.4186C56.4901 79.724 48.7838 82 40.8398 82C29.8948 82 19.6248 77.7327 11.9216 69.9845C4.23413 62.2514 0 51.9582 0 41C0 39.2308 1.4339 37.7969 3.20312 37.7969C4.97235 37.7969 6.40625 39.2308 6.40625 41C6.40625 60.0749 21.8532 75.5938 40.8398 75.5938C52.9585 75.5938 64.202 69.1625 70.425 58.9375H66.1445C64.3753 58.9375 62.9414 57.5036 62.9414 55.7344C62.9414 53.9651 64.3753 52.5312 66.1445 52.5312H73.9922C78.4077 52.5312 82 56.1235 82 60.5391Z" fill="#49311B"/>
</svg>
