<svg width="92" height="92" viewBox="0 0 92 92" fill="none" xmlns="http://www.w3.org/2000/svg">
<g clip-path="url(#clip0)">
<path d="M81.622 41.8356H85.9808C89.2998 41.8356 92 39.1354 92 35.8164C92 32.4974 89.2998 29.7972 85.9808 29.7972H84.5142C84.3079 25.6881 83.1515 23.3588 82.177 21.4682H85.9808C89.2998 21.4682 92 18.768 92 15.449C92 12.13 89.2998 9.42982 85.9808 9.42982H82.9569C84.0616 7.01302 84.3175 4.79083 82.758 2.57151C81.6266 0.961328 79.7764 0 77.8063 0C75.2199 0 72.9143 1.66031 72.0694 4.1312C71.4926 5.81828 70.4433 7.16109 69.6212 9.42982H62.5895C62.7776 9.01798 62.9618 8.57846 63.1325 8.10445C63.8002 6.25133 63.5229 4.18295 62.3907 2.57151C61.2594 0.961328 59.4092 0 57.4391 0C54.8527 0 52.5471 1.66013 51.7022 4.1312C51.4291 4.92973 51.0404 5.6686 50.6288 6.45078C50.1772 7.30879 49.6778 8.25754 49.2513 9.43H42.2222C42.4106 9.01816 42.5946 8.57864 42.7654 8.10462C43.4332 6.25151 43.1557 4.18295 42.0235 2.57151C40.892 0.961328 39.0418 0 37.0717 0C34.4853 0 32.1797 1.66013 31.3348 4.1312C31.0617 4.92973 30.6728 5.6686 30.2612 6.45078C29.8102 7.30771 29.3135 8.25143 28.8866 9.42982H21.855C22.9597 7.0132 23.2158 4.79119 21.6561 2.57151C20.5248 0.961328 18.6746 0 16.7043 0C14.1179 0 11.8125 1.66031 10.9676 4.1312C10.3904 5.81918 9.33908 7.16953 8.51647 9.42982H6.01917C2.70016 9.42982 0 12.1302 0 15.4492C0 18.7682 2.70016 21.4683 6.01917 21.4683H18.0555C18.2363 21.8439 18.4248 22.2092 18.6095 22.5675C19.6614 24.6064 20.7492 26.7149 20.7492 31.1154V31.1341C20.7492 31.1379 20.7491 31.1415 20.7491 31.1452C20.7491 31.1479 20.7491 31.1508 20.7492 31.1535C20.7383 39.146 16.7965 40.0304 16.7965 45.9991C16.7965 47.6812 17.1046 48.9625 17.583 50.1648H10.5645C10.2853 48.9181 10.1489 47.5455 10.1489 45.9991C10.1489 37.6537 14.1017 37.3144 14.1017 31.1154C14.1017 28.5755 13.3637 26.8999 12.608 25.4015C12.2727 24.7369 11.4623 24.47 10.7978 24.8053C10.1333 25.1406 9.86628 25.951 10.2016 26.6155C10.6993 27.6023 11.1324 28.5514 11.3146 29.7976H6.01917C2.70016 29.7972 0 32.4974 0 35.8164C0 39.1354 2.70016 41.8356 6.01917 41.8356H7.80652C7.34293 44.3307 7.32316 47.5692 7.81281 50.1646H6.01917C2.70016 50.1644 0 52.8648 0 56.1836C0 59.5024 2.70016 62.2028 6.01917 62.2028H11.3182C10.9079 65.1089 9.03199 66.5933 8.04012 70.5318H6.01917C2.70016 70.5318 0 73.232 0 76.5508C0 79.8697 2.70016 82.57 6.01917 82.57H8.53462C9.33674 84.7837 10.3861 86.2234 10.9548 87.8699C11.8085 90.3402 14.1141 92 16.6919 92C18.6595 92 20.5103 91.0387 21.6426 89.4285C22.7732 87.8206 23.0519 85.7575 22.3878 83.9094C22.2164 83.4321 22.0317 82.9876 21.8428 82.57H28.8991C29.6939 84.7543 30.7596 86.2417 31.322 87.8699C32.1757 90.3402 34.4813 92 37.0591 92C39.0269 92 40.8776 91.0387 42.01 89.4285C43.1406 87.8208 43.4191 85.7575 42.755 83.9096C42.5836 83.4323 42.3989 82.9878 42.21 82.5702H49.2691C50.0719 84.7857 51.12 86.2222 51.6893 87.8699C52.5428 90.3402 54.8484 92 57.4261 92C59.3939 92 61.2447 91.0387 62.3771 89.4285C63.5077 87.8208 63.7864 85.7577 63.1222 83.9096C62.9508 83.4323 62.7661 82.9878 62.5773 82.5702H69.6334C70.4404 84.7881 71.4865 86.2205 72.0563 87.8699C72.9098 90.3402 75.2154 92 77.7934 92C79.7611 92 81.6117 91.0387 82.7441 89.4285C84.3581 87.1339 83.9964 84.8973 82.9445 82.57H85.9805C89.2995 82.57 91.9996 79.8698 91.9996 76.5508C91.9996 73.2318 89.2995 70.5317 85.9805 70.5317H82.1756C83.1518 68.674 84.311 66.382 84.5148 62.2026H85.9805C89.2995 62.2026 91.9996 59.5024 91.9996 56.1834C91.9996 52.8644 89.2995 50.1643 85.9805 50.1643H81.6326C80.1979 47.2246 80.266 44.5821 81.622 41.8356ZM6.01917 39.1403C4.18636 39.1403 2.69531 37.6492 2.69531 35.8164C2.69531 33.9836 4.18636 32.4925 6.01917 32.4925H11.3099C10.9457 34.9465 9.57267 36.3238 8.54019 39.1403H6.01917ZM89.3047 35.8164C89.3047 37.6492 87.8136 39.1403 85.9808 39.1403C80.5234 39.1403 67.1478 39.1403 62.6148 39.1403C63.3354 37.5453 63.9908 35.5151 64.145 32.4925H85.9808C87.8136 32.4925 89.3047 33.9836 89.3047 35.8164ZM43.7765 59.5075C43.6197 56.5207 42.9593 54.4786 42.2359 52.8597C42.8409 52.8597 69.0336 52.8601 69.6578 52.8597C70.6741 55.6323 72.0405 57.1252 72.4076 59.5075H43.7765ZM48.7749 70.5318H41.4413C42.4176 68.6742 43.5767 66.3821 43.7805 62.2028H52.053C51.6427 65.1089 49.7666 66.5931 48.7749 70.5318ZM31.2013 70.5318C32.2934 66.9747 34.4687 65.4037 34.4687 60.8828C34.4687 56.4643 32.2841 54.7495 31.1964 51.1745C31.1878 51.1409 31.1778 51.1076 31.1666 51.0751C30.335 48.2659 30.3472 44.4412 30.9199 41.8354H37.9381C36.3901 45.7558 37.3218 49.1273 38.9767 52.3351C40.0257 54.3684 41.1105 56.4709 41.1165 60.8467C41.1165 60.8496 41.1163 60.8522 41.1163 60.8551C41.1163 60.8589 41.1165 60.8627 41.1165 60.8666V60.883C41.1165 65.3606 40.0335 67.4191 38.9861 69.4099C38.7942 69.7748 38.5983 70.1471 38.4109 70.532H31.2013V70.5318ZM21.0739 70.5318C22.0502 68.6742 23.2093 66.3821 23.4131 62.2028H31.6854C31.2746 65.1137 29.39 66.6112 28.4032 70.5318H21.0739ZM30.2605 26.0146C30.9197 27.2922 31.4708 28.3606 31.6816 29.7972H23.4122C23.2061 25.6881 22.0496 23.3588 21.0752 21.4682H28.4199C28.9135 23.4039 29.6315 24.7956 30.2605 26.0146ZM23.4104 32.4925H52.0445C51.469 36.3705 48.1882 37.8866 48.1882 45.9987C48.1882 47.5101 48.3065 48.887 48.5476 50.1644H40.8983C39.4624 47.2228 39.5325 44.5803 40.8874 41.8354H43.9039C44.6482 41.8354 45.2516 41.232 45.2516 40.4877C45.2516 39.7435 44.6482 39.1401 43.9039 39.1401C41.7387 39.1401 24.3175 39.1401 21.8802 39.1401C22.6007 37.5453 23.2561 35.5151 23.4104 32.4925ZM72.415 29.7972H64.1468C63.9407 25.6881 62.7842 23.3588 61.8098 21.4682H69.1545C70.1601 25.4123 71.9911 26.9122 72.415 29.7972ZM58.7903 21.4682C58.9711 21.8437 59.1594 22.209 59.3443 22.5673C60.9865 25.7503 61.442 27.5182 61.4838 31.1593C61.4768 35.6065 60.3975 37.6571 59.3537 39.6405C57.5185 43.1279 56.8492 46.4742 58.3174 50.1646H51.2992C51.0199 48.9179 50.8835 47.5453 50.8835 45.9989C50.8835 41.5215 51.9665 39.4637 53.0137 37.4736C57.2779 29.3714 52.9902 26.0139 51.5841 21.4683H58.7903V21.4682ZM48.7841 21.4682C49.7751 25.3564 51.6294 26.937 52.049 29.7972H43.7794C43.5731 25.6881 42.4167 23.3588 41.4422 21.4682H48.7841ZM68.9175 50.1644H61.2666C59.8415 47.2341 59.89 44.5904 61.2538 41.8354H68.9051C68.4563 44.2621 68.4144 47.5074 68.9175 50.1644ZM89.3047 15.4492C89.3047 17.282 87.8136 18.773 85.9808 18.773H80.9656C80.7334 18.0309 80.5938 17.2225 80.5938 16.2315C80.5938 14.479 81.0062 13.3206 81.593 12.1253H85.981C87.8136 12.1251 89.3047 13.6164 89.3047 15.4492ZM74.6197 5.0034C75.0918 3.62286 76.3724 2.69531 77.8088 2.69531C78.9159 2.69531 79.916 3.21497 80.5527 4.12113C82.8814 7.43529 77.8985 10.1444 77.8985 16.2314C77.8985 21.9064 81.4394 22.9491 81.8162 29.7972H75.1324C74.5719 24.7521 71.2508 23.8616 71.2508 16.2314C71.2508 9.82388 73.4746 8.35223 74.6197 5.0034ZM68.6814 18.7729H59.6873C59.6678 18.7725 59.648 18.7725 59.6284 18.7729H49.8944C49.8782 18.7725 49.862 18.7727 49.8459 18.7729H40.2308C39.9986 18.0307 39.859 17.2223 39.859 16.2314C39.859 14.4789 40.2714 13.3204 40.8582 12.1251H50.1984C50.2081 12.1253 50.2176 12.1255 50.2273 12.1255C50.2372 12.1255 50.2473 12.1253 50.2572 12.1251H60.38C60.3941 12.1253 60.4081 12.1253 60.4219 12.1251H68.8979C68.5062 14.2704 68.4732 16.7754 68.6814 18.7729ZM53.0137 7.70608C53.4552 6.8673 53.9116 5.99977 54.2525 5.0034C54.7245 3.62286 56.0052 2.69531 57.4416 2.69531C58.5487 2.69531 59.5488 3.21497 60.1854 4.12113C60.823 5.02855 60.973 6.14729 60.5969 7.19091C60.2968 8.02413 59.9421 8.74467 59.586 9.42982H52.1572C52.4303 8.81457 52.7246 8.2552 53.0137 7.70608ZM33.8851 5.0034C34.3571 3.62286 35.6378 2.69531 37.0742 2.69531C38.1813 2.69531 39.1814 3.21497 39.8179 4.12095C42.152 7.44284 37.1637 10.1216 37.1637 16.2314C37.1637 21.8971 40.7041 22.9382 41.0814 29.7972H34.3976C33.8454 24.8267 30.516 23.7626 30.516 16.2314C30.5161 9.82388 32.74 8.35223 33.8851 5.0034ZM13.5179 5.00322C13.9899 3.62286 15.2704 2.69531 16.707 2.69531C17.814 2.69531 18.8142 3.21497 19.4508 4.12113C20.6833 5.87506 19.8429 7.52244 18.8514 9.43H11.4224C12.117 7.86546 12.9556 6.64736 13.5179 5.00322ZM2.69531 15.4492C2.69531 13.6164 4.18636 12.1253 6.01917 12.1253H28.1631C27.7716 14.2704 27.7385 16.7754 27.9466 18.773H6.01917C4.18636 18.7729 2.69531 17.2818 2.69531 15.4492ZM20.5191 41.8356H28.1703C27.7215 44.2622 27.6796 47.5076 28.1827 50.1646H20.532C19.1071 47.2339 19.1552 44.5905 20.5191 41.8356ZM2.69531 56.1836C2.69531 54.3508 4.18636 52.8597 6.01917 52.8597H28.9232C29.9395 55.6323 31.3059 57.1252 31.673 59.5075H6.01917C4.18636 59.5075 2.69531 58.0164 2.69531 56.1836ZM6.01917 79.8749C4.18636 79.8749 2.69531 78.3838 2.69531 76.551C2.69531 74.7182 4.18636 73.2271 6.01917 73.2271H7.57562C7.49728 73.9985 7.45344 74.8415 7.45344 75.7676C7.45344 77.3574 7.5873 78.7065 7.80455 79.8747H6.01917V79.8749ZM19.4381 87.878C18.8005 88.7847 17.7995 89.3047 16.6919 89.3047C15.2627 89.3047 13.9811 88.3743 13.5024 86.9896C12.3532 83.6632 10.1488 82.0229 10.1488 75.7676C10.1488 68.0468 13.4859 67.2976 14.0329 62.2028H20.7153C20.3435 69.1862 16.7963 69.9475 16.7963 75.7676C16.7963 79.886 18.7432 81.7375 19.8512 84.8209C20.2245 85.8595 20.074 86.9738 19.4381 87.878ZM40.2187 84.8209C40.5919 85.8595 40.4414 86.9738 39.8055 87.878C39.1679 88.7847 38.1669 89.3047 37.0593 89.3047C35.6301 89.3047 34.3483 88.3743 33.8698 86.9896C33.3146 85.3828 32.4852 84.123 31.8031 82.5702H39.2163C39.5688 83.2625 39.9199 83.9895 40.2187 84.8209ZM20.5023 79.8749C19.3473 77.4899 19.251 75.1791 19.8517 73.2271H48.3104C48.2321 73.9985 48.1882 74.8415 48.1882 75.7676C48.1882 77.3574 48.3221 78.7065 48.5393 79.8747C44.4786 79.8749 24.433 79.8749 20.5023 79.8749ZM60.1727 87.878C59.5351 88.7847 58.5341 89.3047 57.4265 89.3047C55.9973 89.3047 54.7156 88.3743 54.2371 86.9896C53.0887 83.6661 50.8834 82.0229 50.8834 75.7676C50.8834 68.0265 54.2198 67.3034 54.7675 62.2028H61.4499C61.2591 65.7874 60.2918 67.6257 59.3533 69.4095C55.2413 77.225 59.1087 80.7108 60.586 84.8209C60.9592 85.8595 60.8086 86.9738 60.1727 87.878ZM80.5399 87.8782C79.9024 88.7847 78.9013 89.3047 77.7937 89.3047C76.3645 89.3047 75.0828 88.3743 74.6043 86.9896C74.0494 85.3835 73.2192 84.1221 72.5375 82.5702H79.9507C80.9286 84.4889 81.7715 86.1269 80.5399 87.8782ZM89.3047 76.5508C89.3047 78.3836 87.8136 79.8747 85.9808 79.8747H61.237C60.6442 78.6505 60.2264 77.4823 60.2264 75.7676C60.2264 74.766 60.3612 73.9585 60.5863 73.2271H79.9829C79.9926 73.2273 80.0021 73.2275 80.0118 73.2275C80.0215 73.2275 80.0312 73.2273 80.0409 73.2271H85.981C87.8136 73.2271 89.3047 74.7182 89.3047 76.5508ZM61.8085 70.5318C62.7848 68.6742 63.944 66.3821 64.1477 62.2028H72.4193C72.2419 63.4579 71.8215 64.3792 71.3656 65.2758C71.0281 65.9392 71.2924 66.7505 71.956 67.0878C72.62 67.4256 73.4313 67.1602 73.768 66.4973C74.4625 65.1319 75.2032 63.4593 75.2032 60.8828C75.2032 56.4643 73.0185 54.7495 71.9309 51.1745C71.0466 47.7451 71.0862 44.4213 71.6542 41.8354H78.6724C77.2105 45.538 77.9066 48.8365 79.711 52.3351C80.76 54.3684 81.8448 56.4709 81.8507 60.8467C81.8507 60.8496 81.8505 60.8522 81.8505 60.8551C81.8505 60.8589 81.8507 60.8627 81.8507 60.8666V60.883C81.8507 65.3606 80.7677 67.4191 79.7203 69.4099C79.5284 69.7748 79.3326 70.1471 79.1452 70.532H61.8085V70.5318ZM89.3047 56.1836C89.3047 58.0164 87.8136 59.5075 85.9808 59.5075H84.5113C84.3545 56.5207 83.6941 54.4786 82.9707 52.8597H85.981C87.8136 52.8597 89.3047 54.351 89.3047 56.1836Z" fill="#FFB800"/>
</g>
<defs>
<clipPath id="clip0">
<rect width="92" height="92" fill="white"/>
</clipPath>
</defs>
</svg>
