<svg width="56" height="56" viewBox="0 0 56 56" fill="none" xmlns="http://www.w3.org/2000/svg">
<path d="M48.1846 22.1405L56 14.326L41.6731 0L33.8595 7.81543L32.5574 6.51332C32.1978 6.15383 31.6149 6.15383 31.2553 6.51332L9.1157 28.652C8.03679 29.7308 8.03656 31.48 9.11536 32.5589C9.11547 32.559 9.11559 32.5591 9.1157 32.5592L11.7199 35.1635L9.76676 37.1166C8.6875 38.1952 8.68704 39.9444 9.76549 41.0235C9.76595 41.024 9.7663 41.0243 9.76676 41.0248L10.4178 41.6759L0 52.0937L3.90633 56L14.3251 45.5831L14.9761 46.2342C16.0549 47.3131 17.8041 47.3133 18.883 46.2345C18.8831 46.2344 18.8833 46.2343 18.8834 46.2342L20.8365 44.281L23.4408 46.8852C24.5196 47.9641 26.2688 47.9644 27.3477 46.8856C27.3478 46.8855 27.3479 46.8853 27.348 46.8852L49.4867 24.7456C49.8462 24.386 49.8462 23.8031 49.4867 23.4435L48.1846 22.1405ZM41.6731 2.60606L53.3939 14.326L46.8834 20.8384L35.1616 9.11662L41.6731 2.60606ZM3.90633 53.3958L2.60422 52.0937L11.7208 42.977L13.0239 44.2792L3.90633 53.3958ZM17.5803 44.9311C17.2161 45.2793 16.6424 45.2793 16.2782 44.9311L15.6272 44.2801L11.0689 39.7227C10.709 39.3633 10.7087 38.7802 11.0682 38.4203C11.0684 38.4201 11.0686 38.4199 11.0689 38.4197L13.022 36.4665L19.5335 42.978L17.5803 44.9311ZM26.0459 45.5831C25.6865 45.9429 25.1034 45.9433 24.7436 45.5838C24.7433 45.5836 24.7431 45.5833 24.7429 45.5831L10.4169 31.2571C10.0571 30.8978 10.0567 30.3146 10.4162 29.9548C10.4164 29.9545 10.4167 29.9543 10.4169 29.9541L31.9063 8.46649L47.5335 24.0946L26.0459 45.5831Z" fill="#49311B"/>
<path d="M41.022 4.55933L37.1148 8.46658L41.022 12.3729L44.9293 8.46658L41.022 4.55933ZM39.7199 8.46658L41.022 7.16355L42.3251 8.46658L41.022 9.76869L39.7199 8.46658Z" fill="#49311B"/>
<path d="M51.4408 14.9781L47.5335 11.0708L43.6272 14.9781L47.5335 18.8853L51.4408 14.9781ZM47.5335 13.675L48.8356 14.9781L47.5335 16.2802L46.2314 14.9781L47.5335 13.675Z" fill="#49311B"/>
<path d="M24.0458 30.6522V26.9909L26.4815 24.5552C26.5893 24.5755 26.6987 24.5864 26.8084 24.5874C27.8256 24.591 28.653 23.7692 28.6565 22.752C28.66 21.7349 27.8383 20.9074 26.821 20.9039C25.8038 20.9005 24.9764 21.7221 24.973 22.7393C24.9723 22.9494 25.0075 23.158 25.0771 23.3562L22.204 26.2284V32.4903L20.8319 33.8624C19.8495 33.599 18.8395 34.1821 18.5761 35.1645C18.3128 36.147 18.8958 37.1569 19.8782 37.4203C20.8607 37.6837 21.8707 37.1006 22.134 36.1182C22.2177 35.8058 22.2177 35.4769 22.134 35.1645L25.3479 31.9544H31.8032L34.4829 29.2755L35.1616 29.9542L37.7667 27.35L35.1625 24.7458L32.5565 27.35L33.1799 27.9734L31.0444 30.1126H27.1896L35.1616 22.1406L36.7658 23.7448L38.4169 17.5833L32.2544 19.2344L33.8595 20.8385L24.0458 30.6522Z" fill="#49311B"/>
</svg>
