<svg width="54" height="54" viewBox="0 0 54 54" fill="none" xmlns="http://www.w3.org/2000/svg">
<g clip-path="url(#clip0)">
<path d="M6.10352e-05 51.2999C6.10352e-05 52.791 1.20889 53.9999 2.70006 53.9999H51.3001C52.7912 53.9999 54.0001 52.791 54.0001 51.2999C54.0001 49.8087 52.7912 48.5999 51.3001 48.5999H49.3813L51.8167 44.9477C53.176 44.6765 54.1092 43.42 53.9759 42.0402C53.8426 40.6605 52.6862 39.6058 51.3001 39.5999H45.9001V35.9999H47.7001C48.0492 35.9997 48.3667 35.7977 48.5148 35.4815C48.6628 35.1654 48.6147 34.7921 48.3913 34.5239L43.8913 29.1239C43.7149 28.9279 43.4637 28.8159 43.2001 28.8159C42.9364 28.8159 42.6852 28.9279 42.5089 29.1239L38.0089 34.5239C37.7854 34.7921 37.7373 35.1654 37.8853 35.4815C38.0334 35.7977 38.3509 35.9997 38.7001 35.9999H40.5001V39.5999H29.7001V35.9999H31.5001C31.8492 35.9997 32.1667 35.7977 32.3148 35.4815C32.4628 35.1654 32.4147 34.7921 32.1913 34.5239L27.6913 29.1239C27.5149 28.9279 27.2637 28.8159 27.0001 28.8159C26.7364 28.8159 26.4852 28.9279 26.3089 29.1239L21.8089 34.5239C21.5854 34.7921 21.5373 35.1654 21.6853 35.4815C21.8334 35.7977 22.1509 35.9997 22.5001 35.9999H24.3001V39.5999H13.5001V35.9999H15.3001C15.6492 35.9997 15.9667 35.7977 16.1148 35.4815C16.2628 35.1654 16.2147 34.7921 15.9913 34.5239L11.4913 29.1239C11.3149 28.9279 11.0637 28.8159 10.8001 28.8159C10.5364 28.8159 10.2852 28.9279 10.1089 29.1239L5.60886 34.5239C5.38543 34.7921 5.33728 35.1654 5.48534 35.4815C5.6334 35.7977 5.95095 35.9997 6.30006 35.9999H8.10006V39.5999H2.70006C1.20889 39.5999 6.11522e-05 40.8087 6.11522e-05 42.2999C6.11522e-05 43.791 1.20889 44.9999 2.70006 44.9999H4.61886L2.18346 48.6521C0.916197 48.8991 0.00116948 50.0087 6.10352e-05 51.2999H6.10352e-05ZM52.2001 51.2999C52.2001 51.7969 51.7971 52.1999 51.3001 52.1999H2.70006C2.203 52.1999 1.80006 51.7969 1.80006 51.2999C1.80006 50.8028 2.203 50.3999 2.70006 50.3999H51.3001C51.7971 50.3999 52.2001 50.8028 52.2001 51.2999ZM13.6189 44.9999L11.2186 48.5999H8.87856L11.2789 44.9999H13.6189ZM40.3813 48.5999L42.7816 44.9999H45.1216L42.7213 48.5999H40.3813ZM38.2213 48.5999H35.8813L38.2816 44.9999H40.6216L38.2213 48.5999ZM33.7213 48.5999H31.3813L33.7816 44.9999H36.1216L33.7213 48.5999ZM29.2213 48.5999H26.8813L29.2816 44.9999H31.6216L29.2213 48.5999ZM24.7213 48.5999H22.3813L24.7816 44.9999H27.1216L24.7213 48.5999ZM20.2213 48.5999H17.8813L20.2816 44.9999H22.6216L20.2213 48.5999ZM15.7213 48.5999H13.3813L15.7816 44.9999H18.1216L15.7213 48.5999ZM44.8813 48.5999L47.2816 44.9999H49.6216L47.2213 48.5999H44.8813ZM41.4001 34.1999H40.6216L43.2001 31.1057L45.7786 34.1999H45.0001C44.503 34.1999 44.1001 34.6028 44.1001 35.0999V39.5999H42.3001V35.0999C42.3001 34.6028 41.8971 34.1999 41.4001 34.1999ZM25.2001 34.1999H24.4216L27.0001 31.1057L29.5786 34.1999H28.8001C28.303 34.1999 27.9001 34.6028 27.9001 35.0999V39.5999H26.1001V35.0999C26.1001 34.6028 25.6971 34.1999 25.2001 34.1999ZM9.00006 34.1999H8.22156L10.8001 31.1057L13.3786 34.1999H12.6001C12.103 34.1999 11.7001 34.6028 11.7001 35.0999V39.5999H9.90006V35.0999C9.90006 34.6028 9.49712 34.1999 9.00006 34.1999ZM1.80006 42.2999C1.80006 41.8028 2.203 41.3999 2.70006 41.3999H51.3001C51.7971 41.3999 52.2001 41.8028 52.2001 42.2999C52.2001 42.7969 51.7971 43.1999 51.3001 43.1999H2.70006C2.203 43.1999 1.80006 42.7969 1.80006 42.2999ZM9.11886 44.9999L6.71856 48.5999H4.37856L6.77886 44.9999H9.11886Z" fill="#49311B"/>
<path d="M27 27C32.465 26.9936 36.8936 22.565 36.9 17.1C36.9 8.69581 27.9819 0.572408 27.6021 0.231308C27.2599 -0.0767772 26.7402 -0.0767772 26.3979 0.231308C26.0181 0.572408 17.1 8.69581 17.1 17.1C17.1065 22.565 21.5351 26.9936 27 27ZM27 2.14651C28.9719 4.09771 35.1 10.6812 35.1 17.1C35.1 21.5735 31.4735 25.2 27 25.2C22.5265 25.2 18.9 21.5735 18.9 17.1C18.9 10.6902 25.0299 4.09951 27 2.14651Z" fill="#49311B"/>
<path d="M27.0001 23.4002C27.4971 23.4002 27.9001 22.9973 27.9001 22.5002C27.9001 22.0031 27.4971 21.6002 27.0001 21.6002C24.516 21.5972 22.5031 19.5842 22.5001 17.1002C22.5001 16.6031 22.0971 16.2002 21.6001 16.2002C21.103 16.2002 20.7001 16.6031 20.7001 17.1002C20.704 20.5779 23.5223 23.3962 27.0001 23.4002Z" fill="#49311B"/>
<path d="M7.20003 26.9999C11.2099 26.9593 14.4305 23.6811 14.4 19.6712C14.4 13.5602 8.07843 7.68407 7.80843 7.43747C7.46427 7.12175 6.93579 7.12175 6.59163 7.43747C6.32163 7.68407 3.13514e-05 13.5602 3.13514e-05 19.6712C-0.0304403 23.6811 3.19018 26.9593 7.20003 26.9999ZM7.20003 9.36707C8.73003 10.9466 12.6 15.3728 12.6 19.6712C12.632 22.6876 10.2164 25.1608 7.20003 25.1999C4.18365 25.1608 1.76802 22.6876 1.80003 19.6712C1.80003 15.3818 5.67003 10.9484 7.20003 9.36707Z" fill="#49311B"/>
<path d="M7.20005 23.3999C7.69711 23.3999 8.10005 22.997 8.10005 22.4999C8.10005 22.0029 7.69711 21.5999 7.20005 21.5999C6.17135 21.5623 5.36665 20.7001 5.40005 19.6712C5.40005 19.1742 4.99711 18.7712 4.50005 18.7712C4.00299 18.7712 3.60005 19.1742 3.60005 19.6712C3.56694 21.694 5.17733 23.362 7.20005 23.3999Z" fill="#49311B"/>
<path d="M46.8 26.9999C50.8099 26.9593 54.0305 23.6811 54 19.6712C54 13.5602 47.6784 7.68407 47.4084 7.43747C47.0643 7.12175 46.5358 7.12175 46.1916 7.43747C45.9216 7.68407 39.6 13.5575 39.6 19.6712C39.5696 23.6811 42.7902 26.9593 46.8 26.9999ZM46.8 9.36707C48.33 10.9466 52.2 15.3728 52.2 19.6712C52.2 22.6535 49.7823 25.0712 46.8 25.0712C43.8177 25.0712 41.4 22.6535 41.4 19.6712C41.4 15.3818 45.27 10.9484 46.8 9.36707Z" fill="#49311B"/>
<path d="M46.8 23.3999C47.2971 23.3999 47.7 22.997 47.7 22.4999C47.7 22.0029 47.2971 21.5999 46.8 21.5999C45.7713 21.5623 44.9666 20.7001 45 19.6712C45 19.1742 44.5971 18.7712 44.1 18.7712C43.603 18.7712 43.2 19.1742 43.2 19.6712C43.1669 21.694 44.7773 23.362 46.8 23.3999Z" fill="#49311B"/>
</g>
<defs>
<clipPath id="clip0">
<rect width="54" height="54" fill="white"/>
</clipPath>
</defs>
</svg>
